<?xml version="1.0" encoding="utf-8"?>
<!-- Generator: Adobe Illustrator 22.1.0, SVG Export Plug-In . SVG Version: 6.00 Build 0)  -->
<svg version="1.1" id="Layer_1" xmlns="http://www.w3.org/2000/svg" xmlns:xlink="http://www.w3.org/1999/xlink" x="0px" y="0px"
	 viewBox="0 0 827.8 169.7" style="enable-background:new 0 0 827.8 169.7;" xml:space="preserve">
<g>
	<g>
		<path d="M589.4,79.5c0.1,12.8-2.6,23.6-9.5,32.8c-11,14.8-26.2,20-44,17.8c-17.8-2.1-30.2-11.8-36.6-28.5
			c-5.3-13.9-5.3-28.1-0.2-42c6.8-18.4,22.9-29.5,42.7-29.7c20.3-0.2,36.4,10.5,43.7,28.9C588.3,65.9,589.5,73.3,589.4,79.5z
			 M570,81.1c-0.7-6.7-1.6-13.1-4.5-19.1c-3.5-7.3-8.9-12.4-16.9-14.2c-12.1-2.8-23.3,2.3-28.8,13.4c-5.7,11.7-5.7,23.8-1.2,35.8
			c4,10.6,13,16.5,23.9,16.5c10.8,0,19.9-6,23.8-16.6C568.1,91.9,568.8,86.4,570,81.1z"/>
		<path d="M115.3,31.9c7.2,0,14.4,0,22.1,0c11.1,32.1,22.3,64.3,33.6,96.9c-7,0-13.5,0-20.6,0c-2-6.2-4.2-12.6-6.3-19.1
			c-12.3,0-24.2,0-36.6,0c-2.2,6.3-4.3,12.6-6.5,19c-6.5,0-13,0-19.4,0C81.6,125,110,43.4,115.3,31.9z M113.2,92.4
			c8.6,0,16.6,0,25.2,0c-4.1-12.4-8.1-24.3-12.1-36.2c-0.4,0-0.7,0-1.1,0C121.3,68.2,117.3,80.1,113.2,92.4z"/>
		<path d="M441.2,96.1c6.2,0,12.3,0,19,0c-0.2,2.2-0.2,4.1-0.6,6c-2.7,12.8-10.4,21.4-22.7,25.7c-9.8,3.4-19.9,4-30,1.6
			c-12.7-3-22-10.4-27.1-22.4c-7.5-17.5-7.5-35.4-0.1-53c5-11.9,14.3-19.5,27-22.6c10.1-2.5,20.2-2.1,30,1.5
			c13.7,5,22.5,16.9,23,31.5c-3.1,0.1-6.1,0.2-9.2,0.2c-3,0-6,0-9.1,0c-0.5-1.3-1.1-2.3-1.4-3.4c-2.5-7.5-7.3-12.7-15.4-13.9
			c-8.8-1.3-16.7,0.5-22.5,7.8c-2.3,2.9-4.1,6.5-5.2,10.1c-3.1,10.1-3,20.4-0.1,30.6c4,13.9,15.1,20.3,29.3,17.3
			c7.6-1.6,12.4-6.1,14.3-13.7C440.5,98.4,440.9,97.3,441.2,96.1z"/>
		<path d="M276.9,48.3c-16.1,0-31.7,0-47.7,0c0,7.3,0,14.2,0,21.7c13.9,0.6,27.8,0,42.2,0.4c0.6,5.5,0.2,10.7,0.3,16.5
			c-14.4,0-28.3,0-42.7,0c0,14.1,0,27.7,0,41.8c-6.9,0.5-13.2,0.1-19.9,0.3c0-32.6,0-64.6,0-97c22.6,0,44.9,0,67.8,0
			C276.9,37.2,276.9,42.4,276.9,48.3z"/>
		<path d="M334.3,128.7c-6.7,0-13,0-19.5,0c0-32.3,0-64.3,0-96.7c6.5,0,12.9,0,19.5,0C334.3,64.2,334.3,96.2,334.3,128.7z"/>
		<path d="M685.2,88.7c0,17.9,0,35.7,0,53.8c-2.7,0-4.9,0-7.7,0c-0.7-4.3-0.2-8.8-0.3-13.2c-0.1-4.5,0-9,0-13.5s0-9,0-13.5
			c0-4.5,0-9,0-13.6c-6.8-2.5-12.4-6.1-15.2-12.9c-1.8-4.5-2.3-9-0.9-13.7c2.9-9.8,11.7-16.1,21.8-15.4c9.4,0.6,17.5,7.8,19.1,17
			C703.9,74.7,698.4,83.2,685.2,88.7z"/>
		<path d="M727.6,92.1c6.3-2.8,10.1-1.8,11.7,2.5c1.4,3.8-0.9,7.9-4.9,8.8c-4.2,1-7.3-2.3-8.4-9.1c-5.7-3.4-11.6-6.9-17.5-10.4
			c1.3-2.4,2.5-1.5,3.6-0.8C717.2,86,722.4,89,727.6,92.1z"/>
		<path d="M661.9,116.1c3.2-6.5,4.2-13.4,8.2-19.1c1.5,3.7-1,6.5-1.8,9.7c-0.9,3.3-2.3,6.6-3.5,10c0.7,1.1,1.4,2.2,2.1,3.4
			c1.2,2,1.2,4.1,0.1,6.2c-1.5,2.8-4.5,4.7-6.8,4.2c-2.4-0.5-5.3-3.8-5.7-6.4c-0.4-3,1.2-5.7,4.4-7
			C659.8,116.6,660.8,116.4,661.9,116.1z"/>
		<path d="M664.6,16.4c1.9,6.7,5.2,12.8,6.6,20c-3-1.5-3-1.5-5.7-9.1c-1.2-3.3-2.3-6.5-3.5-9.8c-1.6-0.6-3-0.9-4.3-1.6
			c-3.4-1.7-4.5-5.6-2.7-8.9c1.6-3,5.4-4.3,8.5-2.8c3.2,1.5,4.7,5.1,3.3,8.4C666.3,13.9,665.3,15.1,664.6,16.4z"/>
		<path d="M697.7,117.1c-2.1-6.7-4.2-13-6.1-19.3c0-0.1,0.4-0.4,0.9-0.9c3,2.3,2.9,6.1,4.2,9c1.4,3.2,2.5,6.5,3.7,9.9
			c4.1,1.2,8.2,2.6,7.7,8.1c-0.3,3.3-3.5,5.9-7.6,6.4C693.9,126.1,693.3,123.4,697.7,117.1z"/>
		<path d="M726.1,39.2c1.4-7.3,4.5-10.2,9-8.8c3.5,1.1,5.6,4.9,4.5,8.3c-1.5,4.6-5.5,5.7-11.9,2.9c-2.9,1.6-6,3.6-9.2,5.2
			c-3,1.4-5.4,4.2-10.1,4.3c2.5-4,6.2-4.8,9-6.6C720.4,42.5,723.4,40.8,726.1,39.2z"/>
		<path d="M732.9,56.3c3.6-6.3,7-7.9,10.9-5.5c3.5,2.1,4.3,6.2,1.9,9.4c-2.9,4-6.6,3.6-12.2-1c-6.5,0.9-13.1,1.8-19.6,2.6
			c-0.2,0-0.4-0.4-0.8-0.9c2.7-2.6,6.4-1.9,9.6-2.7C726,57.3,729.5,56.9,732.9,56.3z"/>
		<path d="M629.9,77.3c-3.6,6.4-7,8.1-10.9,5.7c-3.4-2.1-4.3-6.3-2-9.5c2.8-3.9,6.9-3.5,12.3,1.1c6.5-1,13-2,19.6-3
			c0.2,0,0.5,0.4,0.9,0.8c-0.7,2.1-2.8,1.9-4.4,2.2C640.1,75.5,634.9,76.4,629.9,77.3z"/>
		<path d="M702.1,91.2c5.5,4.3,9.3,10.2,14,15.1c5.9-0.2,8.5,0.9,9.7,4.3c1,2.7,0.2,5.4-1.9,7.2c-2.3,1.9-5.5,2.2-7.9,0.5
			c-3.7-2.6-3.4-6.1-1.9-10c-2.3-2.8-4.8-5.5-6.9-8.5C705.3,97.1,701.9,95.3,702.1,91.2z"/>
		<path d="M648.4,25.1c4.3,5.4,8.4,10.6,12.4,15.8c0.1,0.1-0.2,0.6-0.4,1.3c-3.7-1.2-5.1-4.8-7.5-7.3c-2.4-2.5-4.5-5.3-6.6-7.7
			c-7.4-0.1-10.8-2.6-10.3-7.3c0.4-3.6,3.7-6.2,7.3-5.8C648.2,14.7,649.8,18.2,648.4,25.1z"/>
		<path d="M660.5,91.2c0.1,4.1-3.2,5.9-5.1,8.6c-2,2.8-4.4,5.4-6.8,8.4c0.2,1.1,0.6,2.4,0.8,3.6c0.5,4-1.9,7.1-5.5,7.6
			c-3.6,0.4-7-2.2-7.4-5.8c-0.4-3.8,2.5-7.1,6.5-7.4c1.1-0.1,2.3,0.2,3.4,0.3C651.3,101.5,654.9,95.4,660.5,91.2z"/>
		<path d="M634.8,41.4c-5.3,2.5-7.6,2.5-10.1-0.2c-2.1-2.1-2.5-5.2-1.1-7.8c1.3-2.3,4.2-3.9,6.7-3.4c4.7,0.9,5.7,4.5,5.8,8.7
			c5.7,4.1,12.3,6.8,17.5,11.5c-4.2,0.8-6.7-2.3-9.8-3.8C640.6,45.1,637.7,43.1,634.8,41.4z"/>
		<path d="M654,84c-3,1.8-5.9,3.6-8.9,5.3c-2.9,1.7-5.7,3.4-8.7,5.1c-0.2,1.6-0.2,3.1-0.6,4.5c-1,3.4-4.7,5.4-7.8,4.5
			c-3.6-1.1-5.8-4.7-4.9-8.1c1-3.6,4.6-5.7,8.2-4.7c1.1,0.3,2.1,0.9,3.6,1.5c2.9-1.6,6.1-3.4,9.3-5.2C651.3,82.6,651.3,82.6,654,84z
			"/>
		<path d="M733.1,77.6c-6.9-2.2-14-2.1-20.5-4.4c0.9-2.5,2.4-1.9,3.6-1.7c5.7,1,11.4,2.1,18.1,3.3c0.4-0.6,0.9-1.8,1.7-2.6
			c3-2.5,7-2.1,9.3,0.7c2.5,3.1,2,7.2-1.3,9.6c-3,2.2-6.8,1.5-9.2-1.8C734.2,80,733.8,78.9,733.1,77.6z"/>
		<path d="M629.6,56c6.6,1.4,13.1,2.8,19.6,4.2c0.2,0,0.2,0.6,0.4,1.2c-3.5,1.6-6.7-0.4-10-0.7c-3.5-0.3-6.9-1.2-10.4-1.8
			c-1.1,1-2,1.9-3,2.7c-3.1,2.3-7,1.7-9.3-1.4c-2.1-2.8-1.6-6.7,1.2-8.9c2.9-2.4,6.9-2,9.3,1C628.3,53.4,628.9,54.8,629.6,56z"/>
		<path d="M716.4,27.2c-4.9,4.8-8.5,10.8-13.8,15.5c-1.6-2.2-0.2-3.2,0.7-4.3c3.6-4.3,7.2-8.6,10.9-13c-0.3-1.5-0.7-2.9-0.8-4.4
			c-0.2-3.6,2.3-6.4,5.8-6.8c3.6-0.4,6.6,1.9,7.2,5.3c0.6,3.6-1.8,7.1-5.4,7.6C719.4,27.3,717.9,27.2,716.4,27.2z"/>
		<path d="M700.7,17.5c-2.5,6.5-4.8,12.8-7.2,19.1c-2.6-1-1.7-2.4-1.3-3.5c1.9-5.5,3.9-10.9,6-16.6c-0.7-1-1.5-2-2.1-3.1
			c-1.8-3.4-0.6-7.2,2.7-8.9c3.3-1.7,7.3-0.5,9,2.7c1.7,3.2,0.5,7.1-2.9,8.9C703.6,16.7,702.3,17,700.7,17.5z"/>
		<path d="M682.6,13.7c-0.5,7.1,0.3,13.8-1,20.4c-2.6-3-1.3-6.5-1.5-9.7c-0.2-3.5,0-7,0-10.5c-1.2-1-2.4-1.9-3.4-3
			c-2.4-2.6-2.3-6.6,0.2-9c2.8-2.7,6.6-2.6,9.3,0.3c2.5,2.7,2.5,6.1-0.2,8.9C684.9,12,683.8,12.8,682.6,13.7z"/>
		<path d="M411.1,164.8c3.1-6.2,5.7-11.5,8.4-17.1c1.9,4.5,3.6,17.3,2.8,21.3c-2.6-4.7-1.6-9.7-3.6-15c-2.6,5.2-4.8,9.7-7.6,15.2
			c-1.6-3.2-2.7-5.3-3.8-7.4c-1.1-2.2-2.2-4.4-3.6-7.2c-2.6,4.7-1.2,9.8-3.5,14.2c-1.2-3.1,0.1-14.3,2.3-21.1
			C405.4,153.3,408,158.5,411.1,164.8z"/>
		<path d="M584.8,168.7c0-7.4,0-14.3,0-21.4c3.4,0,6.5-0.4,9.5,0.1c5.5,0.8,8.7,5.3,8.6,11.1c-0.2,5.8-3.6,9.7-9.5,10.2
			C590.7,168.9,587.9,168.7,584.8,168.7z M587.1,149.4c0,5.7,0,11.3,0,17.1c4.8,0.1,9.5,0.9,12.4-3.7c2-3.2,2-6.8-0.2-9.9
			C596.3,148.6,591.9,148.7,587.1,149.4z"/>
		<path d="M161,146.5c6.6,0,11.4,4.7,11.4,11.2c0,6.4-4.9,11.3-11.4,11.3c-6.4,0-11.5-5-11.5-11.3
			C149.6,151.4,154.5,146.6,161,146.5z M161.1,148.7c-5.2,0-9.2,3.9-9.2,9.1c0,5.2,3.9,9.2,9.1,9.2c5.2,0,9.2-3.9,9.2-9.1
			C170.2,152.7,166.3,148.7,161.1,148.7z"/>
		<path d="M816.4,169.1c-6.5,0.1-11.5-4.8-11.6-11.2c0-6.4,4.9-11.4,11.3-11.4c6.5,0,11.5,4.8,11.6,11.1
			C827.8,164,822.8,169,816.4,169.1z M816.4,166.9c5.3-0.1,9.1-4,9-9.3c-0.1-5.2-4-9.1-9.3-9c-5.2,0.1-9.1,4.1-9,9.3
			C807.1,163.1,811.2,167,816.4,166.9z"/>
		<path d="M705.1,157.6c0.1,6.3-4.9,11.4-11.3,11.5c-6.5,0.1-11.6-4.8-11.7-11.1c-0.1-6.4,4.8-11.4,11.3-11.5
			C699.9,146.5,704.9,151.3,705.1,157.6z M693.8,166.9c5.2-0.1,9.2-4.2,9.1-9.3c-0.1-5.1-4.3-9.1-9.4-9c-5.1,0.1-9.1,4.3-9.1,9.4
			C684.4,163.1,688.6,167.1,693.8,166.9z"/>
		<path d="M546.4,169.1c-6.5,0.1-11.6-4.7-11.7-11.1c-0.1-6.4,4.8-11.4,11.2-11.5c6.5-0.1,11.5,4.7,11.7,11
			C557.8,163.9,552.8,169,546.4,169.1z M546.3,148.7c-5.2,0-9.2,3.9-9.2,9.1c-0.1,5.2,3.9,9.2,9.1,9.2c5.3,0,9.2-3.8,9.2-9.1
			C555.4,152.7,551.5,148.7,546.3,148.7z"/>
		<path d="M49,146.5c6.5,0,11.4,4.8,11.4,11.3c0,6.4-4.9,11.3-11.4,11.3c-6.4,0-11.5-5-11.5-11.3C37.6,151.4,42.6,146.5,49,146.5z
			 M58.2,157.5c-0.1-5.1-4.2-9-9.4-8.9c-5.2,0.1-9,4.2-8.9,9.4c0.1,5.2,4.2,9,9.4,8.9C54.5,166.8,58.3,162.8,58.2,157.5z"/>
		<path d="M634,146.5c6.6,0,11.4,4.7,11.4,11.2c0,6.5-4.9,11.3-11.3,11.4c-6.4,0-11.5-5-11.5-11.3
			C622.6,151.4,627.5,146.5,634,146.5z M634.2,148.7c-5.2-0.1-9.2,3.8-9.4,8.9c-0.1,5.2,3.8,9.3,8.9,9.4c5.2,0.1,9.3-3.8,9.4-8.9
			C643.3,152.9,639.4,148.8,634.2,148.7z"/>
		<path d="M365.5,169.1c-6.5,0-11.5-4.9-11.5-11.2c0-6.4,5-11.3,11.4-11.3c6.5,0,11.5,4.9,11.5,11.2
			C376.9,164.1,371.9,169.1,365.5,169.1z M365.6,148.7c-5.1-0.1-9.2,3.9-9.3,9c-0.1,5.1,3.9,9.2,9.1,9.3c5.2,0.1,9.3-3.8,9.3-9
			C374.7,152.8,370.7,148.7,365.6,148.7z"/>
		<path d="M474.1,146.8c3.5,0.2,6.5,0,9.4,0.5c5.5,0.9,8.7,5.2,8.6,11.1c-0.1,5.9-3.5,9.7-9.4,10.2c-2.8,0.3-5.5,0-8.6,0
			C474.1,161.3,474.1,154.4,474.1,146.8z M476.2,148.9c0,6.2,0,11.7,0,17.5c2.3,0,4.3,0.2,6.2,0c4.8-0.6,7.5-3.7,7.5-8.3
			c0-4.6-2.6-7.9-7.2-8.8C480.9,149,478.8,149.1,476.2,148.9z"/>
		<path d="M208.1,168.6c0-7.3,0-14.1,0-21.2c3.5-0.9,7-0.7,10.3,0.1c5.1,1.2,7.9,5.7,7.6,11.4c-0.3,5.5-3.4,9.1-8.8,9.7
			C214.3,168.8,211.4,168.6,208.1,168.6z M210.2,149.1c0,5.9,0,11.4,0,17.2c4.8,0.5,9.3,1,12.3-3.4c2.1-3.2,2-6.7-0.1-9.9
			C219.6,148.5,215,148.9,210.2,149.1z"/>
		<path d="M383.8,158.4c-0.2,3.8-0.4,6.8-0.6,10.2c-1.9-2-1.9-2-1.9-10.3c0-3.6,0-7.2,0-11.3c3.2,0,5.8-0.2,8.4,0.1
			c3.1,0.3,5,2.4,5.3,5.1c0.2,2.6-1,4.5-3.8,5.8c-0.9,0.4-1.8,0.7-3,1.2c2.2,3.1,4.2,5.8,6.6,9.2c-3.8,0-4.3-2.9-5.8-4.5
			C387.4,162.3,386.4,160.1,383.8,158.4z M383.8,156.1c2.2,0,4.1,0.2,6-0.1c1.8-0.2,2.9-1.6,2.8-3.5c0-1.9-1.2-3.1-3-3.4
			c-1.9-0.2-3.8-0.1-5.8-0.1C383.8,151.8,383.8,153.8,383.8,156.1z"/>
		<path d="M192.9,167.9c-4.2-4.8-8.4-9.6-13.5-15.4c-0.2,6.1-0.3,11-0.5,16.9c-2.2-3.6-2.6-13.9-1.4-22.4
			c4.7,5.4,9.1,10.4,13.5,15.5c0.3-0.1,0.7-0.2,1-0.3c0-5,0-10,0-15c0.4,0,0.7,0,1.1,0c1.9,3.2,0.7,6.8,0.9,10.2
			c0.2,3.4,0,6.9,0,10.3C193.7,167.7,193.3,167.8,192.9,167.9z"/>
		<path d="M563,168.4c-0.2-0.4-0.7-0.8-0.7-1.2c0-6.3,0-12.6,0-20.1c5.7,4.9,9.3,10.8,14.5,15.5c1.2-5.4-0.5-10.6,1.4-15.9
			c1.5,3.8,1.8,15.5,0.5,21.6c-4.5-5.1-8.7-9.9-12.9-14.6c-0.4,0.1-0.7,0.2-1.1,0.3c-0.1,4.8-0.2,9.6-0.4,14.5
			C563.8,168.4,563.4,168.4,563,168.4z"/>
		<path d="M723.7,147.2c4.4,0,8.1,0,12.9,0c-3.7,3-7.2,0.8-10.7,2.4c-0.1,1.6-0.2,3.5-0.3,5.9c3.5,0.2,6.7,0.3,9.8,0.4
			c-2.7,3.1-6.3,0.8-9.5,2.6c0,2.4,0,4.9,0,7.8c3.4,0.2,6.5,0.4,10,0.6c-2.9,2.1-6.2,2.3-12.3,1.1
			C723.7,161.3,723.7,154.4,723.7,147.2z"/>
		<path d="M233.1,166.4c3.2,0.2,6.3,0.3,9.7,0.5c-2.4,2.1-5.4,2.4-12,1.2c0-6.8,0-13.7,0-20.9c4,0,7.9,0,12.6,0
			c-3.4,3.2-7.3,0.5-10.4,2.6c0,1.6,0,3.4,0,5.7c3.2,0.2,6.4,0.4,10.6,0.6c-3.7,3.1-7.3,0.8-10.5,2.5
			C233.1,160.9,233.1,163.5,233.1,166.4z"/>
		<path d="M444.9,168.8c-1.4-2.3-2.7-4.6-4.2-7.1c-3,0-6,0-9,0c-1.5,2.5-2.8,4.8-4.2,7.1c-0.6-3.5,5.1-16.3,8.7-21.2
			C439.4,151.9,445.3,165.2,444.9,168.8z M432.7,159.1c2.7,0,4.5,0,7.1,0c-1.2-2.5-2.1-4.4-3.5-7.3
			C434.9,154.6,434,156.5,432.7,159.1z"/>
		<path d="M9.8,147.1c3.3,7.1,6.5,13.9,10,21.4c-2.7-1.3-2.7-1.3-5.9-6.7c-2.9,0-6,0-8.8,0c-2.4,2-2.1,5.5-5.1,6.9
			C0.3,165.1,6.2,152.1,9.8,147.1z M5.7,159.5c3-0.4,5.1,0.8,7-1.2c-1-2-2-3.8-3.3-6.5C8,154.7,7.1,156.5,5.7,159.5z"/>
		<path d="M326.8,147c3.3,7.2,6.3,13.8,9.2,20.5c0.1,0.2-0.2,0.6-0.7,1.7c-1.6-2.7-3-4.9-4.5-7.4c-2.8,0-5.8,0-8.6,0
			c-2.6,1.7-2,5.7-5.3,6.9C317.3,165,323.3,151.9,326.8,147z M326.3,151.5c-1.5,3.1-2.4,5.1-3.7,7.9c2.8-0.1,4.7-0.2,7.2-0.4
			C328.6,156.4,327.7,154.5,326.3,151.5z"/>
		<path d="M137.9,151.9c-1-0.6-2.1-1.3-3.1-1.9c-4.3-2.5-9.7-1.6-12.7,2c-2.7,3.3-2.7,8.2,0,11.5c3,3.6,8.3,4.5,12.7,1.9
			c1-0.6,1.9-1.2,3-2c0,3.1-2.1,4.8-6.1,5.4c-6.2,1-11.8-2.3-13.4-7.8c-1.6-5.5,0.7-11,5.7-13.5
			C129.3,145.1,135.2,146.5,137.9,151.9z"/>
		<path d="M678.1,152c-8.3-4.3-13-4.2-16.4,0c-2.6,3.2-2.7,8.3,0,11.6c3.4,4.2,7.9,4.3,16.2,0.1c-0.3,1-0.2,1.9-0.7,2.3
			c-2.1,2.1-4.7,3-7.7,3.1c-6.2,0.2-10.8-3.3-12-9.1c-1.1-5.7,2.1-11.3,7.6-13C670.6,145.4,675.7,147.1,678.1,152z"/>
		<path d="M759.5,152c-8.5-4.2-12.8-4.1-16.3,0c-2.8,3.3-2.9,8.1-0.2,11.5c3.4,4.2,7.2,4.4,16,0.5c-0.9,3.6-4.4,5.5-9.5,5.1
			c-5.7-0.4-9.8-4.1-10.5-9.5c-0.8-5.8,2.3-10.8,7.5-12.5C751.9,145.4,757.1,147.1,759.5,152z"/>
		<path d="M619.6,148.6c-3.2,0.2-6.3,0.4-9.8,0.6c0,2.1,0,4,0,6.3c3.3,0.2,6.5,0.4,9.7,0.6c-2.9,2.7-6.3,1.1-9.7,2.2c0,2.4,0,5,0,8
			c3.2,0.2,6.4,0.4,10.3,0.6c-3.1,2.1-4.3,2.2-11.9,1.5c-1.2-3.4-1.3-15.7-0.3-21.3c3.8,0,7.7,0,11.6,0
			C619.5,147.7,619.6,148.2,619.6,148.6z"/>
		<path d="M287,168.8c-0.4-3.8,5.5-16.8,9.1-21.6c3.3,7.1,6.5,13.9,9.9,21.4c-2.7,0-3-1.6-3.6-2.8c-0.7-1.3-1.4-2.6-2.1-4
			c-3.1,0-6.1,0-9.1,0C289.8,164.2,288.4,166.5,287,168.8z M295.9,152c-1.7,2.6-3,4.5-3.2,7.1c2.2,0,4.1,0,6.5,0
			C298,156.5,297.1,154.5,295.9,152z"/>
		<path d="M104.8,147c4.1,6.4,9.2,17.9,9.6,21.8c-3-1.5-2.8-5-5.1-7c-2.6,0-5.6,0-8.8,0c-1.3,2.3-2.7,4.7-4.6,7.9
			c-1.1-4,1.2-5.9,2-8.1c0.9-2.3,2.1-4.5,3.1-6.8C102.3,152.4,103.4,150.1,104.8,147z M101.8,158.5c2.3,1.3,4.3,1.3,6.6,0
			c-1-2.1-1.9-3.9-3.3-6.8C103.7,154.6,102.8,156.4,101.8,158.5z"/>
		<path d="M84.6,151.9c-8.4-4.1-12.6-4.1-16-0.3c-2.8,3-3.2,7.7-1,11.1c1.9,2.9,4.7,4.6,8,4.1c2.9-0.4,5.7-1.8,8.6-2.7
			c-1.6,3.9-5.6,5.7-10.9,4.8c-5.5-0.9-9.2-5.1-9.4-10.7c-0.2-5.4,3-9.9,8-11.3C77.3,145.5,82.1,147.1,84.6,151.9z"/>
		<path d="M498.8,166.4c3.5,0.2,6.5,0.4,10.4,0.6c-3.5,2-5.4,2.2-12.7,1.3c-0.1-3.3-0.1-6.7-0.2-10.2c0-3.5,0-6.9,0-10.7
			c4.3-1,8.2-0.7,12.2,0.2c-2.8,2.1-6.3,0.6-9.6,1.7c0,1.8,0,3.7,0,6.1c3.2,0.2,6.3,0.3,9.5,0.5c-2.7,3-6.2,1-9.5,2.4
			C498.8,160.8,498.8,163.4,498.8,166.4z"/>
		<path d="M255.5,147.1c3.1,0,5.9-0.3,8.6,0.1c3,0.4,4.7,2.7,4.6,5.6c-0.1,2.7-1.5,4.6-4.4,5.3c-2.1,0.5-4.2,0.6-6.7,0.9
			c-0.2,3.2-0.3,6.2-0.5,9.8C254.9,166.2,254.4,158.5,255.5,147.1z M257.5,156.6c2.9-0.3,5.3-0.5,7.1-0.6c1.9-2.1,2.3-3.9,0.9-5.4
			c-2.2-2.4-5-1.6-8-1.2C257.5,151.6,257.5,153.7,257.5,156.6z"/>
		<path d="M33.4,150.8c-3-0.9-5.1-1.6-6.9-2.1c-2.6,3.1-1.1,4.8,0.8,6.4c1.9,1.6,3.9,3.2,5.5,5.1c1.6,2,1.6,4.3,0,6.5
			c-1.5,2.1-3.7,2.9-6.2,2.3c-2.5-0.5-4.3-2-4.2-5.2c1.2,0.9,2.5,1.9,3.8,2.8c2.1,0.6,4,0.2,4.9-2c0.9-2-0.2-3.6-1.6-4.8
			c-1.5-1.3-3.1-2.5-4.6-3.9c-1.9-1.7-3.2-3.8-1.8-6.2c0.8-1.4,2.5-2.7,4.1-3.1C29.7,146.1,31.8,147.3,33.4,150.8z"/>
		<path d="M448.9,163.5c1.6,1.2,2.8,2.1,4,3.1c2.2,0.6,4,0.2,5-2c1-2.2-0.4-3.8-1.9-5.2c-1.5-1.3-3.1-2.5-4.5-3.9
			c-1.7-1.6-2.6-3.5-1.7-5.8c0.8-2.1,2.4-3.2,4.6-3.2c2.4,0,4.6,0.6,5.3,3.4c0,0.1-0.2,0.3-0.5,0.7c-2.3-0.5-5.2-4.4-7.7,1
			c1.1,1.3,2.3,2.7,3.7,4c1.6,1.7,3.5,3.1,4.9,4.9c1.4,1.9,1.1,4.1-0.4,6c-1.5,2-4.2,2.9-6.7,2.2C450.4,168.2,449.5,167,448.9,163.5
			z"/>
		<path d="M792.2,163.2c3.2-5.9,4.7-11.5,8.2-17.1c0.4,4-4.5,16.2-8.1,21.5c-2.9-3.8-8.4-17-8.6-21.7
			C787.7,151.6,789,157.4,792.2,163.2z"/>
		<path d="M521.6,147.2c3.5,0,6.7,0,11,0c-3.2,2.8-6.2,0.9-9,2.3c0,1.7,0,3.5,0,5.9c2.6,0.2,5.3,0.5,8.7,0.8
			c-2.8,2.9-5.9,0.8-8.5,2.2c-1.8,2.9,0.5,6.8-1.5,10.3C520.8,165.2,520.5,153.9,521.6,147.2z"/>
		<path d="M351.7,147.7c-3.3,2-6.3,0.6-9.1,1.7c0,1.9,0,3.8,0,6c2.8,0.3,5.5,0.5,8.5,0.8c-1.1,2.3-2.8,1.5-4.1,1.6
			c-1.3,0.1-2.6,0-3.9,0c-1.9,3.5,0.2,7.4-1.7,10.9c-1.5-3.3-1.8-13.2-0.9-21.4C344,146.7,347.4,146.5,351.7,147.7z"/>
		<path d="M310.1,168.4c0-6.2,0-12.5,0-18.8c-1.9-0.5-3.3-0.8-4.9-1.2c2.8-1.8,5.9-2,11.6-0.2c-1.4,0.4-2.7,0.9-4.3,1.4
			c-1.1,6.1,0.4,12.6-0.8,18.8C311.2,168.4,310.7,168.4,310.1,168.4z"/>
		<path d="M773.9,148.4c-1.4,0.3-2.7,0.7-4.3,1.1c-0.8,6.3,0.3,12.7-1.3,19c-1.7-3-1-6.3-1.1-9.4c-0.1-3.1,0-6.3,0-9.4
			c-1.8-0.5-3.2-1-4.6-1.4c3.8-1.8,7.5-1.6,11.3-0.9C773.8,147.7,773.9,148,773.9,148.4z"/>
		<path d="M710,168.7c-1.3-7-0.9-18.6,0.8-22.1c1.6,6.8-0.2,13.3,1.1,19.7c2.7,0.3,5.2,0.5,7.7,0.7c0,0.4,0,0.8,0,1.2
			C716.6,169.3,713.4,168.5,710,168.7z"/>
		<path d="M275.2,166.3c2,0.1,3.3,0.2,4.6,0.4c1.1,0.1,2.1,0.3,3.6,0.6c-3.2,1.8-4.1,1.9-10.3,0.9c-0.1-6.9-0.2-13.8,0.6-20.9
			c2.6,2.8,1.2,6.1,1.5,9.1C275.4,159.5,275.2,162.7,275.2,166.3z"/>
		<path d="M90.2,169.2c-1.4-4.7-1.4-18.3-0.2-21.9C91.6,149.9,91.9,163.7,90.2,169.2z"/>
		<path d="M777.5,168.3c0-7,0-14,0-21.9c2.7,2.6,1.5,5.2,1.7,7.4c0.2,2.5,0.1,5,0,7.5c-0.1,2.4,0.5,4.9-0.6,7.1
			C778.3,168.4,777.9,168.4,777.5,168.3z"/>
		<path d="M144.4,146.5c1.4,4.5,1.4,17.6,0.3,21.8C143.1,165.8,142.7,152.6,144.4,146.5z"/>
		<path d="M164.3,141c-1.1,1.2-2.3,2.4-4.2,4.4c0.2-3.4,1.2-4.7,3.2-5.3C163.7,140.5,164,140.7,164.3,141z"/>
	</g>
</g>
</svg>
