<?xml version="1.0" encoding="utf-8"?>
<!-- Generator: Adobe Illustrator 22.1.0, SVG Export Plug-In . SVG Version: 6.00 Build 0)  -->
<svg version="1.1" id="Layer_1" xmlns="http://www.w3.org/2000/svg" xmlns:xlink="http://www.w3.org/1999/xlink" x="0px" y="0px"
	 viewBox="0 0 100 100" style="enable-background:new 0 0 100 100;" xml:space="preserve">
<style type="text/css">
	.st0{fill:#282D33;}
	.st1{fill:#00FB5E;}
	.st2{fill:#FFFFFF;}
</style>
<g>
	<g>
		<g>
			<path class="st0" d="M57.5,98.1H40.9l-1-12.3c-3.4-0.9-6.5-2.3-9.5-4.2l-9.1,7.7L9.5,77.6l8-9.4c-1.7-3-3-6.3-3.7-9.7l-11.9-1
				l0-16.6l12.3-1c0.9-3.4,2.3-6.5,4.2-9.5l-7.7-9.1L22.4,9.5l9.4,8c3-1.7,6.3-3,9.7-3.7l1-11.9h16.6l1,12.3
				c3.4,0.9,6.5,2.4,9.5,4.2l9.1-7.7l11.8,11.8l-8,9.4c1.7,3,3,6.3,3.7,9.7l11.9,1l0,16.6l-12.3,1c-0.9,3.4-2.3,6.5-4.2,9.5l7.7,9.1
				L77.6,90.5l-9.4-8c-3,1.7-6.3,3-9.7,3.7L57.5,98.1z M44.6,94.1h9.3l0.9-11.2l1.5-0.3c3.9-0.8,7.7-2.2,11.1-4.3l1.2-0.8l8.8,7.4
				l6.6-6.6l-7.3-8.6l0.9-1.3c2.3-3.3,3.9-7,4.8-10.9l0.3-1.4l11.5-1l0-9.3l-11.2-0.9l-0.3-1.5c-0.8-3.9-2.2-7.7-4.3-11.1l-0.8-1.2
				l7.4-8.8l-6.6-6.6l-8.6,7.3l-1.3-0.9c-3.3-2.3-7-3.9-10.9-4.8l-1.4-0.3l-1-11.5h-9.3l-0.9,11.2l-1.5,0.3
				c-3.9,0.8-7.7,2.2-11.1,4.3l-1.2,0.8l-8.8-7.4l-6.6,6.6l7.3,8.6l-0.9,1.3c-2.3,3.3-3.9,7-4.8,10.9l-0.3,1.4l-11.5,1l0,9.3
				l11.2,0.9l0.3,1.5c0.8,3.9,2.2,7.7,4.3,11.1l0.8,1.2l-7.4,8.8l6.6,6.6l8.6-7.3l1.3,0.9c3.3,2.3,7,3.9,10.9,4.8l1.4,0.3L44.6,94.1
				z"/>
		</g>
	</g>
	<g>
		<path class="st0" d="M50,75.6c-14.1,0-25.6-11.5-25.6-25.6h4c0,11.9,9.7,21.6,21.6,21.6c11.9,0,21.6-9.7,21.6-21.6h4
			C75.6,64.1,64.1,75.6,50,75.6z"/>
	</g>
	<g>
		<g>
			<path class="st0" d="M28.4,50h-4c0-0.7,0-1.5,0.1-2.2l4,0.3C28.5,48.8,28.4,49.4,28.4,50z"/>
		</g>
		<g>
			<path class="st0" d="M29.2,44.5l-3.9-1c0.4-1.4,0.9-2.8,1.5-4.2l3.6,1.7C29.9,42.1,29.5,43.3,29.2,44.5z M70.8,44.4
				c-0.3-1.2-0.8-2.4-1.3-3.5l3.6-1.7c0.6,1.3,1.1,2.8,1.5,4.2L70.8,44.4z M32.3,37.7L29,35.4c0.8-1.2,1.8-2.4,2.9-3.4l2.8,2.8
				C33.8,35.7,33,36.6,32.3,37.7z M67.7,37.6c-0.7-1-1.5-2-2.4-2.9l2.8-2.8c1.1,1.1,2,2.2,2.9,3.4L67.7,37.6z M37.6,32.4l-2.3-3.3
				c1.2-0.9,2.5-1.6,3.9-2.2l1.7,3.6C39.7,31,38.6,31.6,37.6,32.4z M62.4,32.3c-1-0.7-2.1-1.4-3.3-1.9l1.7-3.6
				c1.3,0.6,2.6,1.4,3.9,2.2L62.4,32.3z M44.4,29.2l-1-3.9c1.4-0.4,2.9-0.6,4.4-0.8l0.3,4C46.9,28.6,45.6,28.8,44.4,29.2z
				 M55.6,29.2c-1.2-0.3-2.5-0.5-3.7-0.6l0.3-4c1.5,0.1,3,0.4,4.4,0.8L55.6,29.2z"/>
		</g>
		<g>
			<path class="st0" d="M75.6,50h-4c0-0.6,0-1.2-0.1-1.8l4-0.3C75.5,48.5,75.6,49.3,75.6,50z"/>
		</g>
	</g>
	<path class="st1" d="M36.9,59.1c-1.9-2.6-2.9-5.8-2.9-9.1c0-8.8,7.1-15.9,15.9-15.9c8.8,0,15.9,7.1,15.9,15.9c0,3.3-1,6.4-2.9,9.1
		c-1.2-3.1-4.3-5.4-7.9-5.4H44.8C41.3,53.7,38.2,55.9,36.9,59.1z"/>
	<g>
		<path class="st2" d="M56.9,47.7c0,3.8-3.1,6.9-6.9,6.9c-3.8,0-6.9-3.1-6.9-6.9c0-3.8,3.1-6.9,6.9-6.9
			C53.8,40.8,56.9,43.9,56.9,47.7z"/>
		<path class="st0" d="M50,56.6c-4.9,0-8.9-4-8.9-8.9c0-4.9,4-8.9,8.9-8.9c4.9,0,8.9,4,8.9,8.9C58.9,52.6,54.9,56.6,50,56.6z
			 M50,42.8c-2.7,0-4.9,2.2-4.9,4.9c0,2.7,2.2,4.9,4.9,4.9c2.7,0,4.9-2.2,4.9-4.9C54.9,45,52.7,42.8,50,42.8z"/>
	</g>
	<g>
		<path class="st0" d="M64,70.1h-4v-7.9c0-2.7-2.2-4.9-4.9-4.9H44.8c-2.7,0-4.9,2.2-4.9,4.9v7.9h-4v-7.9c0-4.9,4-8.9,8.9-8.9h10.3
			c4.9,0,8.9,4,8.9,8.9V70.1z"/>
	</g>
</g>
</svg>
