<?xml version="1.0" encoding="utf-8"?>
<!-- Generator: Adobe Illustrator 22.1.0, SVG Export Plug-In . SVG Version: 6.00 Build 0)  -->
<svg version="1.1" id="Layer_1" xmlns="http://www.w3.org/2000/svg" xmlns:xlink="http://www.w3.org/1999/xlink" x="0px" y="0px"
	 viewBox="0 0 100 100" style="enable-background:new 0 0 100 100;" xml:space="preserve">
<style type="text/css">
	.st0{fill:#4984E9;}
	.st1{fill:#FFFFFF;}
	.st2{font-family:'Rubik-Medium';}
	.st3{font-size:12.9565px;}
	.st4{fill:#282D33;}
	.st5{fill:none;}
	.st6{fill:#AEB5B6;}
	.st7{fill:#00FD5E;}
</style>
<g>
	<circle class="st0" cx="14.9" cy="14.9" r="14.9"/>
	<text transform="matrix(1 0 0 1 11.1035 18.9287)" class="st1 st2 st3">2</text>
</g>
<g>
	<g>
		<path class="st1" d="M25.9,80.5v6.1c0,1.2,1.2,2.5,2.4,2.5h68.3c1.2,0,1.9-1.2,1.9-2.4v-6.2H25.9z"/>
		<path class="st4" d="M96.5,90.7H28.2c-2,0-3.9-1.9-3.9-4V79H100v7.8C100,88.7,98.7,90.7,96.5,90.7z M27.4,82.1v4.6
			c0,0.4,0.6,0.9,0.8,0.9h68.3c0.1,0,0.3-0.4,0.3-0.9V82L27.4,82.1L27.4,82.1z"/>
	</g>
	<g>
		<path class="st1" d="M54.1,89.2c-0.1,1.5,0.1,4.9-0.2,6.6c-0.3,1.5-0.5,1.6-1.3,2c-0.4,0.3-1.2,0.6-1.9,0.9l0,0"/>
		<path class="st4" d="M51.3,100l-1.2-2.8c0.7-0.3,1.4-0.6,1.7-0.8l0.1-0.1c0.1,0,0.2-0.1,0.3-0.1c0-0.1,0.1-0.3,0.2-0.8
			c0.1-0.9,0.1-2.5,0.1-3.8c0-1,0-1.9,0-2.6l3.1,0.3c0,0.5,0,1.4,0,2.3c0,1.6,0,3.3-0.2,4.4c-0.4,1.8-0.8,2.3-2,3L53.3,99
			C52.7,99.4,51.8,99.8,51.3,100z"/>
	</g>
	<g>
		<path class="st1" d="M73.5,98.6c-0.6-0.3-1.4-0.6-1.9-0.9c-0.8-0.4-1-0.5-1.3-2c-0.3-1.6-0.1-5-0.2-6.5"/>
		<path class="st4" d="M72.9,100.1c-0.6-0.3-1.5-0.7-2-0.9l-0.1,0c-1.3-0.7-1.6-1.2-2-3c-0.2-1.2-0.2-2.8-0.2-4.4c0-0.9,0-1.7,0-2.2
			l3.1-0.3c0,0.7,0,1.6,0,2.5c0,1.3,0,2.9,0.1,3.8c0.1,0.5,0.1,0.7,0.2,0.8c0.1,0,0.1,0.1,0.3,0.1c0.4,0.2,1,0.5,1.8,0.9L72.9,100.1
			z"/>
	</g>
	<g>
		<line class="st5" x1="48.7" y1="98.5" x2="75.6" y2="98.5"/>
		<rect x="48.7" y="97" class="st4" width="26.8" height="3.1"/>
	</g>
	<g>
		<path class="st1" d="M35,36.1h-7.1c-1.1,0-2,0.9-2,2v42.5h72.6V38.1c0-1.1-0.9-2-2-2h-7.1"/>
		<path class="st4" d="M99.9,82.1H24.3v-44c0-1.9,1.6-3.5,3.5-3.5H35v3.1h-7.1c-0.3,0-0.4,0.2-0.4,0.4V79h69.5V38.1
			c0-0.3-0.2-0.4-0.4-0.4h-7.1v-3.1h7.1c1.9,0,3.5,1.6,3.5,3.5L99.9,82.1L99.9,82.1z"/>
	</g>
	<g>
		<rect x="31.5" y="41.9" class="st6" width="9" height="32.8"/>
		<rect x="83.7" y="41.9" class="st6" width="8.9" height="32.8"/>
	</g>
	<g>
		<g>
			<rect x="83.1" y="34.9" class="st4" width="3.1" height="39.9"/>
		</g>
		<g>
			<polygon class="st4" points="41.3,74.8 38.2,74.8 38.2,20 72.1,20 72.1,23.1 41.3,23.1 			"/>
		</g>
		<g>
			<polygon class="st7" points="74.3,32 86.1,32 74.3,20.1 			"/>
		</g>
		<g>
			<rect x="47.3" y="34.6" class="st4" width="16.8" height="3.1"/>
		</g>
		<g>
			<rect x="47.3" y="41.3" class="st4" width="28.9" height="3.1"/>
		</g>
		<g>
			<rect x="47.3" y="48" class="st4" width="28.9" height="3.1"/>
		</g>
		<g>
			<rect x="47.3" y="54.7" class="st4" width="28.9" height="3.1"/>
		</g>
		<g>
			<rect x="47.3" y="61.4" class="st4" width="28.9" height="3.1"/>
		</g>
		<g>
			<rect x="47.3" y="68.1" class="st4" width="28.9" height="3.1"/>
		</g>
	</g>
</g>
</svg>
