<?xml version="1.0" encoding="utf-8"?>
<!-- Generator: Adobe Illustrator 22.1.0, SVG Export Plug-In . SVG Version: 6.00 Build 0)  -->
<svg version="1.1" id="Layer_1" xmlns="http://www.w3.org/2000/svg" xmlns:xlink="http://www.w3.org/1999/xlink" x="0px" y="0px"
	 viewBox="0 0 100 100" style="enable-background:new 0 0 100 100;" xml:space="preserve">
<style type="text/css">
	.st0{fill:#4984E9;}
	.st1{fill:#FFFFFF;}
	.st2{font-family:'Rubik-Medium';}
	.st3{font-size:12.9565px;}
	.st4{fill:#00FD5E;}
	.st5{fill:#282D33;}
	.st6{fill:#AEB5B6;}
</style>
<g>
	<circle class="st0" cx="14.9" cy="14.9" r="14.9"/>
	<text transform="matrix(1 0 0 1 11.1035 18.9287)" class="st1 st2 st3">3</text>
</g>
<g>
	<path class="st4" d="M76.1,30.2c0,6.5-5.2,11.7-11.7,11.7s-11.7-5.2-11.7-11.7s5.2-11.7,11.7-11.7C70.9,18.4,76.1,23.7,76.1,30.2z"
		/>
	<g>
		<g>
			<rect x="61.5" y="7.7" class="st5" width="3.8" height="7.7"/>
		</g>
		<g>
			
				<rect x="52.4" y="10.7" transform="matrix(0.8661 -0.4999 0.4999 0.8661 1.258007e-02 29.1027)" class="st5" width="3.8" height="7.7"/>
		</g>
		<g>
			<rect x="46" y="17.8" transform="matrix(0.5001 -0.866 0.866 0.5001 5.2504 52.3201)" class="st5" width="3.8" height="7.7"/>
		</g>
		<g>
			<rect x="42.1" y="29.1" class="st5" width="7.7" height="3.8"/>
		</g>
		<g>
			<rect x="45.1" y="38.1" transform="matrix(0.866 -0.5 0.5 0.866 -13.4495 29.8247)" class="st5" width="7.7" height="3.8"/>
		</g>
		<g>
			<rect x="79" y="34.4" transform="matrix(0.4999 -0.8661 0.8661 0.4999 7.3656 89.1823)" class="st5" width="3.8" height="7.7"/>
		</g>
		<g>
			<rect x="79" y="27" class="st5" width="7.7" height="3.8"/>
		</g>
		<g>
			<rect x="76" y="17.9" transform="matrix(0.866 -0.5001 0.5001 0.866 0.8053 42.5819)" class="st5" width="7.7" height="3.8"/>
		</g>
		<g>
			
				<rect x="68.9" y="11.5" transform="matrix(0.4998 -0.8662 0.8662 0.4998 24.7906 69.6902)" class="st5" width="7.7" height="3.8"/>
		</g>
	</g>
	<g>
		<path class="st1" d="M41,88.5h6.3c2.3,3.1,5.9,5,9.9,5h8.3h11.9H78l0,0h5c3.1,0,5.6-2.5,5.6-5.6s-2.5-5.6-5.6-5.6h4.5
			c3.1,0,5.6-2.5,5.6-5.6s-2.5-5.6-5.6-5.6H89c3.1,0,5.6-2.5,5.6-5.6s-2.5-5.6-5.6-5.6h3c3.1,0,5.6-2.5,5.6-5.6s-2.5-5.6-5.6-5.6
			H76.2c-0.3,0-0.6,0-0.9,0.1H69l2-7v-8c0-3.9-3.2-7.1-7.1-7.1h-2.3c-0.1,0-0.2,0-0.3,0v10.8l-2.8,3.9l-10.2,11
			c-1.5,1.5-2.5,3.5-3.1,5.6H41"/>
		<path class="st5" d="M78.1,95.4H57.3c-4.2,0-8.1-1.8-10.9-5H41v-3.8h7.2l0.6,0.8c2,2.7,5.1,4.3,8.4,4.3H83c2.1,0,3.7-1.7,3.7-3.7
			S85,84.3,83,84.3v-3.8h4.5c2.1,0,3.7-1.7,3.7-3.7s-1.7-3.7-3.7-3.7V69H89c2.1,0,3.7-1.7,3.7-3.7S91,61.6,89,61.6v-3.8h3
			c2.1,0,3.7-1.7,3.7-3.7c0-2.1-1.7-3.7-3.7-3.7H76.3c-0.2,0-0.4,0-0.6,0h-0.3h-8.8l2.6-9.2v-7.6c0-2.8-2.3-5.2-5.2-5.2h-0.7v9.5
			L60,42.4L49.7,53.7c-1.3,1.3-2.2,3-2.6,4.8L46.8,60H41v-3.8h2.8c0.7-1.8,1.7-3.6,3.1-5L57,39.9l2.3-3.3v-12l1.8-0.1
			c0.2,0,0.3,0,0.4,0h2.4c4.9,0,9,4,9,8.9v8.2l-1.4,4.9h3.7c0.4,0,0.7-0.1,1.1-0.1h15.8c4.2,0,7.5,3.4,7.5,7.5
			c0,3.1-1.8,5.7-4.4,6.9c0.9,1.2,1.4,2.8,1.4,4.4c0,2.6-1.3,4.9-3.4,6.3c1.2,1.3,1.9,3.1,1.9,5c0,3.5-2.4,6.4-5.6,7.3
			c0.7,1.2,1.1,2.5,1.1,4c0,4.2-3.4,7.5-7.5,7.5L78.1,95.4z"/>
	</g>
	<polyline class="st6" points="14.9,55.7 38.4,55.7 38.4,100 14.9,100 	"/>
	<g>
		<rect x="30.4" y="92.2" class="st1" width="2.9" height="2.8"/>
	</g>
</g>
</svg>
