<?xml version="1.0" encoding="utf-8"?>
<!-- Generator: Adobe Illustrator 22.1.0, SVG Export Plug-In . SVG Version: 6.00 Build 0)  -->
<svg version="1.1" id="Layer_1" xmlns="http://www.w3.org/2000/svg" xmlns:xlink="http://www.w3.org/1999/xlink" x="0px" y="0px"
	 viewBox="0 0 100 100" style="enable-background:new 0 0 100 100;" xml:space="preserve">
<style type="text/css">
	.st0{fill:#00FC5E;}
	.st1{fill:#FFFFFF;}
	.st2{fill:#282D33;}
	.st3{fill:#AEB5B6;}
</style>
<g>
	<ellipse transform="matrix(0.9181 -0.3964 0.3964 0.9181 -29.3426 12.358)" class="st0" cx="15.2" cy="77.2" rx="14.2" ry="14.2"/>
	<g>
		<g>
			<line class="st1" x1="14.2" y1="71.6" x2="14.2" y2="100.1"/>
			<rect x="12.3" y="71.6" class="st2" width="3.9" height="28.5"/>
		</g>
		<g>
			<line class="st1" x1="14.2" y1="86.2" x2="20.4" y2="80"/>
			<rect x="13" y="81.2" transform="matrix(0.7071 -0.7071 0.7071 0.7071 -53.703 36.6007)" class="st2" width="8.7" height="3.9"/>
		</g>
		<g>
			<line class="st1" x1="14.2" y1="83.1" x2="8.1" y2="77"/>
			<rect x="9.2" y="75.7" transform="matrix(0.707 -0.7072 0.7072 0.707 -53.3366 31.3488)" class="st2" width="3.9" height="8.7"/>
		</g>
	</g>
	<g>
		<rect x="26.5" y="24.1" class="st1" width="65.4" height="74"/>
		<path class="st2" d="M93.9,100.1H24.5V22.2h69.4V100.1z M28.5,96.1H90V26.1H28.5V96.1z"/>
	</g>
	<g>
		<rect x="71.4" y="70.8" class="st1" width="13.9" height="27.2"/>
		<path class="st2" d="M87.2,100H69.5V68.9h17.8V100z M73.4,96h9.9V72.8h-9.9V96z"/>
	</g>
	<polygon class="st0" points="86.8,0.6 31.7,0.6 22.3,22.2 96.1,22.2 	"/>
	<g>
		<rect x="33.8" y="30.9" class="st3" width="11.6" height="21.5"/>
		<rect x="53.5" y="30.9" class="st3" width="11.6" height="21.5"/>
		<rect x="73.1" y="30.9" class="st3" width="11.6" height="21.5"/>
	</g>
	<rect x="33.9" y="68.7" class="st3" width="11.6" height="21.5"/>
	<rect x="53.6" y="68.7" class="st3" width="11.6" height="21.5"/>
	<g>
		<line class="st1" x1="22.5" y1="59" x2="96" y2="59"/>
		<rect x="22.5" y="57.1" class="st2" width="73.5" height="3.9"/>
	</g>
	<g>
		<g>
			<path class="st2" d="M34.6,19c-3.7,0-6.8-3-6.8-6.8h3.9c0,1.6,1.3,2.9,2.9,2.9c1.6,0,2.9-1.3,2.9-2.9h3.9
				C41.4,15.9,38.4,19,34.6,19z"/>
		</g>
		<g>
			<path class="st2" d="M44.2,19c-3.7,0-6.8-3-6.8-6.8h3.9c0,1.6,1.3,2.9,2.9,2.9c1.6,0,2.9-1.3,2.9-2.9H51C51,15.9,47.9,19,44.2,19
				z"/>
		</g>
		<g>
			<path class="st2" d="M53.7,19c-3.7,0-6.8-3-6.8-6.8h3.9c0,1.6,1.3,2.9,2.9,2.9c1.6,0,2.9-1.3,2.9-2.9h3.9
				C60.5,15.9,57.5,19,53.7,19z"/>
		</g>
		<g>
			<path class="st2" d="M63.3,19c-3.7,0-6.8-3-6.8-6.8h3.9c0,1.6,1.3,2.9,2.9,2.9c1.6,0,2.9-1.3,2.9-2.9h3.9
				C70.1,15.9,67,19,63.3,19z"/>
		</g>
		<g>
			<path class="st2" d="M72.9,19c-3.7,0-6.8-3-6.8-6.8H70c0,1.6,1.3,2.9,2.9,2.9c1.6,0,2.9-1.3,2.9-2.9h3.9
				C79.6,15.9,76.6,19,72.9,19z"/>
		</g>
	</g>
	<g>
		<g>
			<path class="st2" d="M59.2,10.3c-3.7,0-6.8-3-6.8-6.8h3.9c0,1.6,1.3,2.9,2.9,2.9c1.6,0,2.9-1.3,2.9-2.9H66
				C66,7.2,63,10.3,59.2,10.3z"/>
		</g>
		<g>
			<path class="st2" d="M68.8,10.3c-3.7,0-6.8-3-6.8-6.8h3.9c0,1.6,1.3,2.9,2.9,2.9c1.6,0,2.9-1.3,2.9-2.9h3.9
				C75.6,7.2,72.5,10.3,68.8,10.3z"/>
		</g>
		<g>
			<path class="st2" d="M78.4,10.3c-3.7,0-6.8-3-6.8-6.8h3.9c0,1.6,1.3,2.9,2.9,2.9c1.6,0,2.9-1.3,2.9-2.9h3.9
				C85.1,7.2,82.1,10.3,78.4,10.3z"/>
		</g>
	</g>
	<g>
		<line class="st1" x1="72.6" y1="83.8" x2="77" y2="83.8"/>
		<rect x="72.6" y="81.8" class="st2" width="4.4" height="3.9"/>
	</g>
</g>
</svg>
