<?xml version="1.0" encoding="utf-8"?>
<!-- Generator: Adobe Illustrator 22.1.0, SVG Export Plug-In . SVG Version: 6.00 Build 0)  -->
<svg version="1.1" id="Layer_1" xmlns="http://www.w3.org/2000/svg" xmlns:xlink="http://www.w3.org/1999/xlink" x="0px" y="0px"
	 viewBox="0 0 100 100" style="enable-background:new 0 0 100 100;" xml:space="preserve">
<style type="text/css">
	.st0{fill:#4984E9;}
	.st1{fill:#FFFFFF;}
	.st2{font-family:'Rubik-Medium';}
	.st3{font-size:12.9565px;}
	.st4{fill:#00FD5E;}
	.st5{fill:#282D33;}
	.st6{fill:#AEB5B6;}
	.st7{fill:none;}
</style>
<g>
	<circle class="st0" cx="14.9" cy="14.9" r="14.9"/>
	<text transform="matrix(1 0 0 1 11.1035 18.9287)" class="st1 st2 st3">1</text>
</g>
<g>
	<g>
		<ellipse class="st4" cx="28" cy="85.6" rx="14.4" ry="14.4"/>
		<g>
			<path class="st1" d="M32.9,83.9c0,2.7-2.2,4.9-4.9,4.9s-4.9-2.2-4.9-4.9c0-2.7,2.2-4.9,4.9-4.9S32.9,81.2,32.9,83.9z"/>
			<path class="st5" d="M28,90.6c-3.7,0-6.7-3-6.7-6.7s3-6.7,6.7-6.7s6.7,3,6.7,6.7S31.7,90.6,28,90.6z M28,80.9
				c-1.7,0-3.1,1.4-3.1,3.1s1.4,3,3.1,3s3.1-1.4,3.1-3.1S29.7,80.9,28,80.9z"/>
		</g>
		<g>
			<path class="st1" d="M31.7,89.3h-7.3c-2.7,0-4.9,2.2-4.9,4.9v0.4c2.2,2.1,5.2,3.4,8.6,3.4c3.3,0,6.3-1.3,8.6-3.4v-0.4
				C36.6,91.6,34.4,89.3,31.7,89.3z"/>
			<path class="st5" d="M28,99.9c-3.7,0-7.1-1.4-9.8-3.9l-0.6-0.6v-1.2c0-3.7,3-6.7,6.7-6.7h7.3c3.7,0,6.7,3,6.7,6.7v1.2L37.8,96
				C35.1,98.5,31.7,99.9,28,99.9z M21.3,93.9c1.9,1.5,4.3,2.4,6.7,2.4s4.8-0.9,6.7-2.4c-0.2-1.5-1.5-2.7-3.1-2.7h-7.3
				C22.8,91.2,21.5,92.3,21.3,93.9z"/>
		</g>
	</g>
	<g>
		<path class="st1" d="M65.5,13.5c-18.2,0-33.1,14.8-33.1,33.1c0,7.8,2.7,14.9,7.2,20.6l-2,7.2l7.2-2c5.6,4.5,12.8,7.2,20.6,7.2
			c18.2,0,33.1-14.8,33.1-33.1C98.6,28.3,83.7,13.5,65.5,13.5z"/>
		<path class="st5" d="M65.5,81.4c-7.7,0-14.9-2.4-21-7l-9.4,2.5l2.5-9.4c-4.6-6.1-7-13.3-7-21c0-19.2,15.6-34.9,34.9-34.9
			s34.9,15.6,34.9,34.9S84.7,81.4,65.5,81.4z M45.3,70.5L46,71c5.6,4.4,12.3,6.8,19.4,6.8c17.2,0,31.2-14,31.2-31.2
			s-14-31.2-31.2-31.2s-31.2,14-31.2,31.2c0,7.1,2.3,13.9,6.8,19.4l0.6,0.7l-1.4,5.1L45.3,70.5z"/>
	</g>
	<path class="st6" d="M65.5,73.3c-14.7,0-26.8-12-26.8-26.8s12-26.8,26.8-26.8s26.8,12,26.8,26.8C92.2,61.3,80.2,73.3,65.5,73.3z"/>
	<g>
		<g>
			<path class="st5" d="M67.2,47.6l-2.3-2.8l2.8-2.3c0.9-0.6,1.2-1.1,1.2-1.3v-2.5c0-1-0.8-1.8-1.8-1.8h-2.9c-1,0-1.8,0.8-1.8,1.8
				v1.2h-3.6v-1.2c0-3,2.4-5.5,5.5-5.5h2.9c3,0,5.5,2.4,5.5,5.5v2.5c0,1.2-0.5,2.8-2.8,4.3L67.2,47.6z"/>
		</g>
		<g>
			<path class="st5" d="M65.6,51.7H62v-2.5c0-1.2,0.5-2.8,2.8-4.3l2.5-2l2.3,2.8L66.8,48c-0.9,0.6-1.2,1.1-1.2,1.3V51.7L65.6,51.7z"
				/>
		</g>
		<g>
			<line class="st7" x1="63.8" y1="54.5" x2="63.8" y2="58"/>
			<rect x="62" y="54.5" class="st5" width="3.6" height="3.5"/>
		</g>
	</g>
</g>
</svg>
