<?xml version="1.0" encoding="utf-8"?>
<!-- Generator: Adobe Illustrator 22.1.0, SVG Export Plug-In . SVG Version: 6.00 Build 0)  -->
<svg version="1.1" id="Layer_1" xmlns="http://www.w3.org/2000/svg" xmlns:xlink="http://www.w3.org/1999/xlink" x="0px" y="0px"
	 viewBox="0 0 100 100" style="enable-background:new 0 0 100 100;" xml:space="preserve">
<style type="text/css">
	.st0{fill:#AEB5B6;}
	.st1{fill:#FFFFFF;}
	.st2{fill:#282D33;}
	.st3{fill:#00FB5E;}
</style>
<g>
	<path class="st0" d="M88.9,39.6c0.1-0.7,0.1-1.3,0.1-2c0-9.3-7.6-16.9-16.9-16.9c-1.6,0-3.1,0.2-4.6,0.6C65.9,9.3,55.5,0,43,0
		C29.3,0,18.2,11.1,18.2,24.8c0,0.1,0,0.1,0,0.2c-7.5,0.9-13.4,7.3-13.4,15c0,8.4,6.8,15.1,15.1,15.1h25.5h7.4h6.7h14.8H88
		c0,0,0,0,0,0c0.2,0,0.4,0,0.7,0c4.3,0,7.7-3.5,7.7-7.7C96.4,43.2,93,39.8,88.9,39.6z"/>
	<g>
		<path class="st1" d="M22,24.9l0-0.2c0-11.6,9.4-20.9,21-20.9v3.8c-9.5,0-17.2,7.7-17.2,17.1l0,0.1L22,24.9z"/>
	</g>
	<g>
		<path class="st1" d="M12.4,40H8.6c0-5.8,4.3-10.6,10-11.2l0.4,3.8C15.3,32.9,12.4,36.2,12.4,40z"/>
	</g>
	<g>
		<g>
			<path class="st2" d="M73,100.1h-3.8V72.2c0-0.5,0.2-1,0.6-1.3c5.3-5.3,8.3-12.4,8.3-20c0-15.6-12.7-28.3-28.3-28.3
				c-15.6,0-28.3,12.7-28.3,28.3c0,0.4,0,0.9,0,1.3c0,0.4-0.1,0.7-0.3,1l-8.1,14h3.7c1.1,0,1.9,0.9,1.9,1.9v11.9
				c0,3.4,2.8,6.2,6.2,6.2h12.9c1.1,0,1.9,0.9,1.9,1.9v10.8H36v-8.9H25c-5.5,0-10-4.5-10-10v-10H9.9c-0.7,0-1.3-0.4-1.6-1
				c-0.3-0.6-0.3-1.3,0-1.9l9.5-16.4c0-0.3,0-0.6,0-0.9c0-17.7,14.4-32.1,32.1-32.1c17.7,0,32.1,14.4,32.1,32.1
				c0,8.3-3.1,16.1-8.8,22.1V100.1z"/>
		</g>
	</g>
	<polygon class="st3" points="66.7,43.5 49.6,43.5 56,24.2 31,55.1 48.2,55.1 41.7,74.4 	"/>
</g>
</svg>
