<?xml version="1.0" encoding="utf-8"?>
<!-- Generator: Adobe Illustrator 22.1.0, SVG Export Plug-In . SVG Version: 6.00 Build 0)  -->
<svg version="1.1" id="Layer_1" xmlns="http://www.w3.org/2000/svg" xmlns:xlink="http://www.w3.org/1999/xlink" x="0px" y="0px"
	 viewBox="0 0 100 100" style="enable-background:new 0 0 100 100;" xml:space="preserve">
<style type="text/css">
	.st0{fill:#FFFFFF;}
	.st1{fill:#282D33;}
	.st2{fill:#00FB5E;}
</style>
<g>
	<g>
		<g>
			<path class="st0" d="M97.2,67.9V12.7c0-1.4-1.2-2.6-2.6-2.6H5.4c-1.4,0-2.6,1.2-2.6,2.6v55.2H97.2z"/>
			<path class="st1" d="M99.2,69.9H0.8V12.7c0-2.5,2.1-4.6,4.6-4.6h89.2c2.5,0,4.6,2.1,4.6,4.6V69.9z M4.8,65.9h90.3V12.7
				c0-0.3-0.3-0.6-0.6-0.6H5.4c-0.3,0-0.6,0.3-0.6,0.6V65.9z"/>
		</g>
		<rect x="10.2" y="17.6" class="st2" width="79.5" height="42.7"/>
		<g>
			<path class="st0" d="M2.8,67.9v8c0,1.5,1.6,3.2,3.1,3.2h89c1.5,0,2.4-1.6,2.4-3.1v-8.1H2.8z"/>
			<path class="st1" d="M94.8,81h-89c-2.6,0-5.1-2.5-5.1-5.2v-10h98.5v10.1C99.2,78.5,97.6,81,94.8,81z M4.8,69.9v6
				c0,0.5,0.7,1.2,1.1,1.2h89c0.1,0,0.4-0.5,0.4-1.1v-6.1H4.8z"/>
		</g>
		<g>
			<path class="st0" d="M39.5,79.1c-0.2,2,0.2,6.4-0.2,8.5c-0.4,2-0.7,2-1.7,2.6C37,90.6,36,91,35.1,91.4l0,0"/>
			<path class="st1" d="M35.9,93.2l-1.6-3.7c1-0.4,1.8-0.8,2.2-1.1l0.1-0.1c0.1-0.1,0.2-0.1,0.3-0.2c0-0.1,0.1-0.4,0.2-1
				c0.2-1.1,0.2-3.2,0.2-5c0-1.3,0-2.5,0-3.3l4,0.3c-0.1,0.7,0,1.8,0,3c0,2.1,0.1,4.3-0.2,5.8c-0.5,2.4-1.1,3.1-2.6,3.9L38.5,92
				C37.8,92.4,36.6,92.9,35.9,93.2z"/>
		</g>
		<g>
			<path class="st0" d="M64.8,91.4c-0.8-0.4-1.8-0.8-2.4-1.1c-1-0.6-1.2-0.6-1.6-2.6c-0.4-2.2-0.1-6.4-0.2-8.4"/>
			<path class="st1" d="M64,93.2c-0.8-0.4-1.9-0.8-2.6-1.2L61.3,92c-1.6-0.9-2.1-1.6-2.5-3.9c-0.3-1.5-0.3-3.6-0.2-5.7
				c0-1.2,0-2.3,0-2.9l4-0.3c0.1,0.9,0.1,2.1,0,3.3c0,1.7-0.1,3.8,0.2,4.9c0.1,0.6,0.2,0.9,0.2,1c0.1,0.1,0.2,0.1,0.3,0.2
				c0.5,0.3,1.3,0.7,2.4,1.1L64,93.2z"/>
		</g>
		<g>
			<line class="st0" x1="32.6" y1="91.2" x2="67.5" y2="91.2"/>
			<rect x="32.6" y="89.2" class="st1" width="34.9" height="4"/>
		</g>
	</g>
	<g>
		<g>
			<g>
				<line class="st0" x1="48.9" y1="31.7" x2="48.9" y2="25.9"/>
				<rect x="46.9" y="25.9" class="st1" width="4" height="5.8"/>
			</g>
			<g>
				<line class="st0" x1="43.5" y1="35.2" x2="38.5" y2="32.3"/>
				<rect x="39" y="30.9" transform="matrix(0.4999 -0.8661 0.8661 0.4999 -8.7211 52.3975)" class="st1" width="4" height="5.8"/>
			</g>
			<g>
				<line class="st0" x1="43.8" y1="41.7" x2="38.9" y2="44.5"/>
				
					<rect x="38.5" y="41.1" transform="matrix(0.8661 -0.4999 0.4999 0.8661 -16.0086 26.4439)" class="st1" width="5.8" height="4"/>
			</g>
			<g>
				<line class="st0" x1="49.6" y1="44.6" x2="49.6" y2="50.4"/>
				<rect x="47.6" y="44.6" class="st1" width="4" height="5.8"/>
			</g>
			<g>
				<line class="st0" x1="55" y1="41.1" x2="60" y2="44"/>
				
					<rect x="55.5" y="39.6" transform="matrix(0.4999 -0.8661 0.8661 0.4999 -8.0408 71.1004)" class="st1" width="4" height="5.8"/>
			</g>
			<g>
				<line class="st0" x1="54.7" y1="34.6" x2="59.7" y2="31.7"/>
				<rect x="54.3" y="31.2" transform="matrix(0.866 -0.5 0.5 0.866 -8.9174 33.049)" class="st1" width="5.8" height="4"/>
			</g>
		</g>
		<g>
			<g>
				<polygon class="st0" points="54.9,40.8 60.9,40.8 66.8,40.8 63.9,46 60.9,51.1 57.9,46 				"/>
				<path class="st1" d="M60.9,55.1l-9.4-16.3l9.4,0l9.4,0L60.9,55.1z M58.4,42.8l2.5,4.3l2.5-4.3h-2.5H58.4z"/>
			</g>
			<g>
				<rect x="64.8" y="44.2" transform="matrix(0.5 -0.866 0.866 0.5 -7.8824 81.6812)" class="st1" width="4" height="7"/>
			</g>
		</g>
	</g>
</g>
</svg>
