<?xml version="1.0" encoding="utf-8"?>
<!-- Generator: Adobe Illustrator 22.1.0, SVG Export Plug-In . SVG Version: 6.00 Build 0)  -->
<svg version="1.1" id="Layer_1" xmlns="http://www.w3.org/2000/svg" xmlns:xlink="http://www.w3.org/1999/xlink" x="0px" y="0px"
	 viewBox="0 0 100 100" style="enable-background:new 0 0 100 100;" xml:space="preserve">
<style type="text/css">
	.st0{fill:#282D33;}
	.st1{fill:#AEB5B6;}
	.st2{fill:#FFFFFF;}
	.st3{fill:#00FB5E;}
</style>
<g>
	<g>
		<g>
			<g>
				<g>
					<g>
						<path class="st0" d="M49.4,95.2L49.4,95.2c-0.4,0-0.7,0-1.1,0c-18-0.6-32.2-15.7-31.6-33.8c0.6-18.1,15.5-32.2,33.8-31.6
							c18,0.6,32.2,15.7,31.7,33.8C81.6,81.3,67.2,95.2,49.4,95.2z M49.4,33.4c-15.8,0-28.6,12.4-29.1,28.2
							c-0.5,16.1,12.1,29.5,28.2,30.1c0.3,0,0.6,0,1,0c15.8,0,28.6-12.4,29.1-28.2c0.5-16.1-12.1-29.5-28.2-30.1
							C50,33.4,49.7,33.4,49.4,33.4z"/>
					</g>
				</g>
				<g>
					<path class="st1" d="M77.4,55.3l-2.6,4.4L70.4,68l-2.5-5.4l-4.1,2.5l-2.5-4.9l-2.4,2.8l-1.1-0.3l-3.6-1.5l0.6,3.9l2.8,1.2
						l-5.3,11.9l-2.2,1.3L48.2,75l-1.1-7.5l-3.7-0.3l-1.5-2.8l2.3-5.7l3.1-0.6l1.9,1.3l4.6-1l-4.9-2.9l-4.2-0.8l-0.2-1.3l4.1-2.2
						L47,48.5l4.2-3.6l4.3,1.7l7.3-2c0,0,3-1.5,6.4-3.1C73.1,45.2,76,49.9,77.4,55.3z"/>
					<path class="st1" d="M32,39.5l-1.7,2.8l-3,5.1c-0.1,0.1-0.1,0.3,0,0.4l1.9,3.3c0.1,0.1,0.3,0.2,0.4,0.2c0.2,0,0.3-0.1,0.4-0.2
						l1.8-2.7l3.3,4.3l-6.8,5.7l-3.7,0.2c-0.2,0-0.3,0.1-0.4,0.3l-0.9,2.3c-0.1,0.1,0,0.3,0.1,0.4l2.4,3.3l-4-2l-1.1-1.4
						C20.9,52.4,25.3,44.5,32,39.5z"/>
					<path class="st1" d="M30,74.8l-2.4-5.1l2.9-5.9l7.6,7.4l-7,13.4l-1.3-3.1l0.3-6.4C30.1,74.9,30.1,74.9,30,74.8z"/>
					<path class="st1" d="M37.5,47.7l-3-6.9c4.8-2.2,8-2.7,9.2-2.8l-1.6,6.2L37.5,47.7z"/>
				</g>
			</g>
		</g>
	</g>
	<g>
		<g>
			<g>
				<path class="st2" d="M49.7,20.5c-4.3,0-8.7,0.1-13,0.1c-5.6,0.2-10.1,3.4-10,7.1c0,3.9,0.1,7.7,0.1,11.6
					c0.1,3.7,1.9,6.6,9.8,10.2c4.7,2.2,9.2,3.8,13.5,4.6L49.7,20.5z"/>
				<path class="st0" d="M49.7,56c-4.3-0.9-8.8-2.4-13.9-4.8C28,47.6,25.1,44.4,25,39.4l-0.1-11.6c-0.1-4.8,5.1-8.8,11.8-8.9
					l13.1-0.1l1.8,1.8l0.3,33.7L49.7,56z M47.9,22.4l-11.2,0.1c-4.5,0.1-8.3,2.6-8.2,5.3l0.1,11.6c0,2.4,0.7,4.9,8.8,8.6
					c3.9,1.8,7.5,3.1,10.9,4L47.9,22.4z"/>
			</g>
			<g>
				<path class="st2" d="M49.7,20.5c4.3,0,8.7-0.1,13-0.1c5.6,0,10.1,3.2,10.1,6.9c0,3.9,0.1,7.7,0.1,11.6c0,3.7-1.8,6.6-9.6,10.4
					c-4.6,2.3-9.1,3.9-13.4,4.9L49.7,20.5z"/>
				<path class="st0" d="M50.4,56l-2.2-1.7l-0.3-33.7l1.8-1.8l13-0.1c6.7,0.1,11.9,3.9,12,8.7l0.1,11.6c0,5-2.9,8.3-10.6,12
					C59.2,53.3,54.7,55,50.4,56z M51.5,22.3l0.3,29.6c3.3-0.9,6.9-2.3,10.8-4.2c7.9-3.9,8.6-6.3,8.6-8.8l-0.1-11.6
					c0-2.8-3.8-5.1-8.4-5.2L51.5,22.3z"/>
			</g>
		</g>
		<g>
			<path class="st2" d="M49.9,41.1L6.3,24.8L49.6,7.6l43.6,16.3L49.9,41.1z"/>
			<path class="st0" d="M49.9,43L1.4,24.8L49.6,5.7l48.6,18.2L49.9,43z M11.3,24.7l38.6,14.5L88.1,24L49.6,9.5L11.3,24.7z"/>
		</g>
		<g>
			<polygon class="st3" points="74.5,47.9 74.4,31.9 47.8,21.9 49,18.5 77.9,29.4 78.1,47.9 			"/>
		</g>
		<g>
			<path class="st2" d="M54.5,19.9c0,1.3-2.1,2.4-4.7,2.5c-2.6,0-4.8-1-4.8-2.4c0-1.3,2.1-2.4,4.7-2.4
				C52.3,17.5,54.5,18.5,54.5,19.9z"/>
			<path class="st0" d="M49.7,24.1c-3.7,0-6.5-1.7-6.5-4.1c0-2.4,2.7-4.2,6.5-4.3l0.1,0c3.7,0,6.5,1.7,6.5,4.1
				c0,2.4-2.7,4.2-6.5,4.3H49.7z M47,19.9c0.4,0.3,1.3,0.6,2.7,0.6v1.8l0.1-1.8c1.4,0,2.3-0.4,2.7-0.6c-0.4-0.3-1.3-0.6-2.7-0.6
				C48.4,19.3,47.4,19.7,47,19.9z"/>
		</g>
		<path class="st3" d="M81.9,57.2v-7.8c0-2.5-2.4-4.4-5.3-4.4c-2.9,0-5.3,2-5.3,4.4v7.8H81.9z"/>
	</g>
</g>
</svg>
