<?xml version="1.0" encoding="utf-8"?>
<!-- Generator: Adobe Illustrator 22.1.0, SVG Export Plug-In . SVG Version: 6.00 Build 0)  -->
<svg version="1.1" id="Layer_1" xmlns="http://www.w3.org/2000/svg" xmlns:xlink="http://www.w3.org/1999/xlink" x="0px" y="0px"
	 viewBox="0 0 100 100" style="enable-background:new 0 0 100 100;" xml:space="preserve">
<style type="text/css">
	.st0{fill:#282D33;}
	.st1{fill:#00FC5E;}
</style>
<g>
	<g>
		<g>
			<path class="st0" d="M7.6,47.4h-4c0-0.7,0-1.4,0-2.1l4,0.2C7.6,46.1,7.6,46.8,7.6,47.4z"/>
		</g>
		<g>
			<path class="st0" d="M7.9,41.8l-4-0.5c0.2-1.3,0.4-2.7,0.7-4l3.9,0.9C8.3,39.3,8.1,40.6,7.9,41.8z M9.5,34.5l-3.8-1.2
				c0.4-1.3,0.9-2.6,1.4-3.8l3.7,1.5C10.3,32.2,9.9,33.3,9.5,34.5z M12.4,27.6l-3.5-1.8c0.6-1.2,1.3-2.4,2-3.5l3.4,2.1
				C13.6,25.5,13,26.5,12.4,27.6z M16.4,21.4l-3.2-2.4c0.8-1.1,1.7-2.1,2.6-3.1l3,2.7C17.9,19.4,17.1,20.4,16.4,21.4z M21.4,15.9
				l-2.7-2.9c1-0.9,2-1.8,3.1-2.6l2.4,3.2C23.3,14.2,22.3,15,21.4,15.9z M27.3,11.3l-2.2-3.4c1.1-0.7,2.3-1.4,3.5-2.1l1.9,3.5
				C29.4,10,28.3,10.6,27.3,11.3z M33.9,7.8l-1.5-3.7c1.2-0.5,2.5-1,3.8-1.4l1.2,3.8C36.2,6.9,35,7.3,33.9,7.8z M66.6,7.6
				c-1.1-0.5-2.3-0.9-3.5-1.2l1.2-3.8c1.3,0.4,2.6,0.9,3.8,1.4L66.6,7.6z M41,5.6l-0.9-3.9c1.3-0.3,2.7-0.5,4-0.7l0.5,4
				C43.4,5.1,42.2,5.3,41,5.6z M59.5,5.5C58.3,5.2,57,5,55.8,4.8l0.5-4c1.3,0.2,2.7,0.4,4,0.7L59.5,5.5z M48.4,4.6l-0.2-4
				c1.3-0.1,2.7-0.1,4.1,0l-0.1,4C50.9,4.5,49.6,4.5,48.4,4.6z"/>
		</g>
		<g>
			<path class="st0" d="M71.7,10.1c-0.6-0.3-1.1-0.6-1.7-0.9l1.8-3.6c0.6,0.3,1.2,0.6,1.8,1L71.7,10.1z"/>
		</g>
	</g>
	<g>
		<g>
			<path class="st0" d="M97.4,49.5l-4-0.2c0-0.6,0-1.3,0-1.9h4C97.4,48.1,97.4,48.8,97.4,49.5z"/>
		</g>
		<g>
			<path class="st0" d="M84.8,79.4l-2.9-2.7c0.9-0.9,1.7-1.9,2.5-2.9l3.2,2.5C86.6,77.4,85.7,78.4,84.8,79.4z M89.9,72.9l-3.4-2.2
				c0.7-1.1,1.3-2.2,1.9-3.3l3.5,1.9C91.3,70.6,90.6,71.8,89.9,72.9z M93.7,65.6L90.1,64c0.5-1.2,0.9-2.4,1.3-3.6l3.8,1.2
				C94.8,63,94.3,64.3,93.7,65.6z M96.3,57.7l-3.9-0.9c0.3-1.2,0.5-2.5,0.7-3.7l4,0.5C96.8,55,96.6,56.4,96.3,57.7z"/>
		</g>
		<g>
			<path class="st0" d="M80.2,83.7l-2.5-3.1c0.5-0.4,1-0.8,1.4-1.2l2.7,3C81.3,82.8,80.8,83.3,80.2,83.7z"/>
		</g>
	</g>
	<g>
		<path class="st0" d="M50.5,28.1c10.7,0,19.3,8.6,19.3,19.3c0,10.6-8.6,19.3-19.3,19.3c-10.6,0-19.3-8.6-19.3-19.3
			C31.2,36.8,39.8,28.1,50.5,28.1 M50.5,24.1c-12.8,0-23.3,10.4-23.3,23.3c0,12.8,10.4,23.3,23.3,23.3c12.8,0,23.3-10.4,23.3-23.3
			C73.8,34.6,63.3,24.1,50.5,24.1L50.5,24.1z"/>
	</g>
	<g>
		<g>
			<path class="st0" d="M74.6,99.1h-4V69.8c0-0.5,0.2-1,0.6-1.4c5.6-5.6,8.7-13.1,8.7-21c0-16.4-13.3-29.7-29.7-29.7
				c-16.4,0-29.7,13.3-29.7,29.7c0,0.5,0,0.9,0,1.3c0,0.4-0.1,0.8-0.3,1.1l-8.5,14.8h3.9c1.1,0,2,0.9,2,2v12.5
				c0,3.6,2.9,6.5,6.5,6.5h13.5c1.1,0,2,0.9,2,2v11.4h-4v-9.4H24.1c-5.8,0-10.5-4.7-10.5-10.5V68.6H8.2c-0.7,0-1.4-0.4-1.7-1
				c-0.4-0.6-0.4-1.4,0-2l10-17.2c0-0.3,0-0.6,0-0.9c0-18.6,15.1-33.7,33.7-33.7c18.6,0,33.7,15.1,33.7,33.7
				c0,8.7-3.3,16.9-9.3,23.2V99.1z"/>
		</g>
	</g>
	<path class="st1" d="M75.5,13.9v8.5h8.8L57.2,48.7L42.1,35.7L27.5,51.2c0.5,3.2,1.7,6.2,3.4,8.8l11.8-12.5l14.8,12.7l31.8-30.8v6.9
		h8.5V13.9H75.5z"/>
</g>
</svg>
