<?xml version="1.0" encoding="utf-8"?>
<!-- Generator: Adobe Illustrator 22.1.0, SVG Export Plug-In . SVG Version: 6.00 Build 0)  -->
<svg version="1.1" id="Layer_1" xmlns="http://www.w3.org/2000/svg" xmlns:xlink="http://www.w3.org/1999/xlink" x="0px" y="0px"
	 viewBox="0 0 100 100" style="enable-background:new 0 0 100 100;" xml:space="preserve">
<style type="text/css">
	.st0{fill:#282D33;}
	.st1{fill:#00FB5E;}
</style>
<g>
	<g>
		<path class="st0" d="M67.1,67.5h-4c0-0.4-0.2-0.6-0.3-0.7H36.4c0,0-0.2,0.2-0.2,0.6h-4c0-2.5,1.9-4.6,4.2-4.6h26.5
			C65.2,62.9,67.1,64.9,67.1,67.5z"/>
	</g>
	<g>
		<path class="st0" d="M48.4,64.8h-4V50.1C32.3,42.5,24.8,29,24.8,14.4c0-4.2,0.6-8.4,1.9-12.5l0.4-1.4h45.2l0.4,1.4
			c1.2,4,1.9,8.2,1.9,12.5c0,14.5-7.5,28.1-19.6,35.7v10.7h-4v-13l1-0.6c11.5-6.7,18.6-19.3,18.6-32.9c0-3.3-0.4-6.7-1.3-9.9H30
			c-0.9,3.2-1.3,6.5-1.3,9.9c0,13.5,7.1,26.1,18.6,32.9l1,0.6L48.4,64.8L48.4,64.8z"/>
	</g>
	<g>
		<path class="st0" d="M35.1,27.7c-0.9,0-1.7-0.6-1.9-1.4c-1-3.7-1.6-7.4-1.6-11.3c0-4.2,0.6-8.3,1.9-12.2c0.3-1,1.4-1.6,2.5-1.3
			c1,0.3,1.6,1.4,1.3,2.5c-1.1,3.6-1.7,7.3-1.7,11.1c0,3.5,0.5,6.9,1.4,10.2c0.3,1.1-0.3,2.2-1.4,2.5C35.5,27.7,35.3,27.7,35.1,27.7
			z"/>
	</g>
	<g>
		<path class="st0" d="M63.2,42.1c-0.8,0-1.6-0.5-1.9-1.3c-0.4-1,0.2-2.2,1.2-2.5c11.9-4.1,20.2-15.8,21-29.5H71.8c-1.1,0-2-0.9-2-2
			s0.9-2,2-2h15.8v2C87.5,23,78,37.2,63.9,42C63.7,42.1,63.4,42.1,63.2,42.1z"/>
	</g>
	<g>
		<path class="st0" d="M36,42.1c-0.2,0-0.4,0-0.6-0.1C21.3,37.2,11.8,23,11.7,6.8v-2h15.8c1.1,0,2,0.9,2,2s-0.9,2-2,2H15.7
			c0.8,13.7,9.1,25.4,21,29.5c1,0.4,1.6,1.5,1.2,2.5C37.6,41.6,36.9,42.1,36,42.1z"/>
	</g>
	<g>
		<path class="st0" d="M75.6,100h-52V89.5h52V100z M27.6,96h44.1v-2.5H27.6V96z"/>
	</g>
	<g>
		<path class="st0" d="M73.9,93.5H25.4V70.6h48.5V93.5z M29.4,89.5h40.5v-15H29.4V89.5z"/>
	</g>
	<rect x="33.8" y="79" class="st1" width="31.7" height="6.2"/>
	<g>
		<path class="st0" d="M75.6,100h-52V89.5h52V100z M27.6,96h44.1v-2.5H27.6V96z"/>
	</g>
	<g>
		<path class="st0" d="M73.9,93.5H25.4V70.6h48.5V93.5z M29.4,89.5h40.5v-15H29.4V89.5z"/>
	</g>
</g>
</svg>
