<?xml version="1.0" encoding="utf-8"?>
<!-- Generator: Adobe Illustrator 22.1.0, SVG Export Plug-In . SVG Version: 6.00 Build 0)  -->
<svg version="1.1" id="Layer_1" xmlns="http://www.w3.org/2000/svg" xmlns:xlink="http://www.w3.org/1999/xlink" x="0px" y="0px"
	 viewBox="0 0 205 215" style="enable-background:new 0 0 205 215;" xml:space="preserve">
<style type="text/css">
	.st0{fill:#00FD5E;}
	.st1{fill:#282D33;}
	.st2{fill:#FFFFFF;}
	.st3{fill:#AEB5B6;}
</style>
<g>
	<path class="st0" d="M142.8,52.4c0,15.1-12.2,27.3-27.3,27.3c-15.1,0-27.3-12.2-27.3-27.3c0-15.1,12.2-27.3,27.3-27.3
		C130.6,25.1,142.8,37.3,142.8,52.4z"/>
	<g>
		<g>
			<rect x="108.7" class="st1" width="8.9" height="17.8"/>
		</g>
		<g>
			<rect x="87.5" y="7" transform="matrix(0.8661 -0.4999 0.4999 0.8661 4.3908 48.1062)" class="st1" width="8.9" height="17.8"/>
		</g>
		<g>
			<rect x="72.7" y="23.5" transform="matrix(0.5001 -0.866 0.866 0.5001 10.4881 83.047)" class="st1" width="8.9" height="17.8"/>
		</g>
		<g>
			<rect x="63.7" y="49.8" class="st1" width="17.8" height="8.9"/>
		</g>
		<g>
			<rect x="70.7" y="70.9" transform="matrix(0.866 -0.5 0.5 0.866 -26.9948 49.8919)" class="st1" width="17.8" height="8.9"/>
		</g>
		<g>
			
				<rect x="149.4" y="62.2" transform="matrix(0.4999 -0.8661 0.8661 0.4999 15.3574 168.8269)" class="st1" width="8.9" height="17.8"/>
		</g>
		<g>
			<rect x="149.5" y="44.9" class="st1" width="17.8" height="8.9"/>
		</g>
		<g>
			
				<rect x="142.5" y="23.8" transform="matrix(0.866 -0.5001 0.5001 0.866 6.1767 79.5234)" class="st1" width="17.8" height="8.9"/>
		</g>
		<g>
			<rect x="126" y="9" transform="matrix(0.4998 -0.8662 0.8662 0.4998 55.8282 123.5266)" class="st1" width="17.8" height="8.9"/>
		</g>
	</g>
	<g>
		<path class="st2" d="M61.2,188.1h14.6c5.3,7.1,13.7,11.6,23.1,11.6h19.3h27.6h1.4l0-0.1h11.5c7.2,0,13.1-5.9,13.1-13.1
			c0-7.2-5.9-13.1-13.1-13.1h10.5c7.2,0,13.1-5.9,13.1-13.1c0-7.2-5.9-13.1-13.1-13.1h3.5c7.2,0,13.1-5.9,13.1-13.1
			c0-7.2-5.9-13.1-13.1-13.1h7c7.2,0,13.1-5.9,13.1-13.1c0-7.2-5.9-13.1-13.1-13.1h-36.7c-0.8,0-1.5,0.1-2.2,0.2h-14.7l4.6-16.3
			V60.2c0-9.1-7.4-16.4-16.4-16.4H109c-0.2,0-0.4,0-0.7,0V69l-6.4,9L78.1,104c-3.4,3.6-5.9,8.1-7.1,13h-9.7"/>
		<path class="st1" d="M147.4,204.2H99c-9.8,0-18.9-4.2-25.3-11.6H61.2v-8.9h16.8l1.3,1.8c4.7,6.3,11.8,9.9,19.6,9.9l59.9-0.1
			c4.8,0,8.7-3.9,8.7-8.7c0-4.8-3.9-8.7-8.7-8.7V169h10.5c4.8,0,8.7-3.9,8.7-8.7c0-4.8-3.9-8.7-8.7-8.7v-8.9h3.5
			c4.8,0,8.7-3.9,8.7-8.7c0-4.8-3.9-8.7-8.7-8.7v-8.9h7c4.8,0,8.7-3.9,8.7-8.7c0-4.8-3.9-8.7-8.7-8.7h-36.7c-0.4,0-0.9,0-1.5,0.1
			l-0.7,0.1h-20.5l6-21.3V60.2c0-6.6-5.4-12-12-12h-1.7v22.1l-7.5,10.5L81.3,107c-3,3.1-5.1,7-6.1,11.1l-0.8,3.4H61.2v-8.9h6.4
			c1.6-4.3,4-8.3,7.2-11.7l23.6-25.8l5.4-7.6V39.6l4.2-0.2c0.4,0,0.6,0,0.9,0h5.5c11.5,0,20.9,9.4,20.9,20.8v19.1l-3.2,11.3h8.5
			c0.9-0.1,1.7-0.2,2.6-0.2h36.7c9.7,0,17.5,7.9,17.5,17.5c0,7.1-4.2,13.2-10.3,16c2.1,2.9,3.3,6.4,3.3,10.2
			c0,6.1-3.1,11.5-7.9,14.6c2.7,3.1,4.4,7.1,4.4,11.6c0,8.1-5.6,15-13.1,17c1.7,2.7,2.6,5.9,2.6,9.2c0,9.7-7.9,17.5-17.5,17.5
			L147.4,204.2z"/>
	</g>
	<polyline class="st3" points="0.4,111.7 55.1,111.7 55.1,214.8 0.4,214.8 	"/>
	<g>
		<rect x="36.4" y="196.7" class="st2" width="6.8" height="6.6"/>
	</g>
</g>
</svg>
