<?xml version="1.0" encoding="utf-8"?>
<!-- Generator: Adobe Illustrator 22.1.0, SVG Export Plug-In . SVG Version: 6.00 Build 0)  -->
<svg version="1.1" id="Layer_1" xmlns="http://www.w3.org/2000/svg" xmlns:xlink="http://www.w3.org/1999/xlink" x="0px" y="0px"
	 viewBox="0 0 100 100" style="enable-background:new 0 0 100 100;" xml:space="preserve">
<style type="text/css">
	.st0{fill:#FFFFFF;}
	.st1{fill:#282D33;}
	.st2{fill:#00FB5E;}
</style>
<g>
	<g>
		<g>
			<g>
				<path class="st0" d="M77.3,92.4c0,0.7-0.5,1.2-1.2,1.2h-71c-0.7,0-1.2-0.5-1.2-1.2V63.2c0-0.7,0.5-1.2,1.2-1.2h71
					c0.7,0,1.2,0.5,1.2,1.2V92.4z"/>
				<path class="st1" d="M76.1,95.5h-71c-1.7,0-3.1-1.4-3.1-3.1V63.2c0-1.7,1.4-3.1,3.1-3.1h71c1.7,0,3.1,1.4,3.1,3.1v29.2
					C79.2,94.1,77.8,95.5,76.1,95.5z M5.8,91.7h69.5V63.9H5.8V91.7z"/>
			</g>
			<g>
				<g>
					<g>
						<line class="st2" x1="9.9" y1="70.1" x2="15.4" y2="70.1"/>
						<rect x="9.9" y="68.2" class="st2" width="5.6" height="3.8"/>
					</g>
					<g>
						<line class="st2" x1="19.2" y1="70.1" x2="24.7" y2="70.1"/>
						<rect x="19.2" y="68.2" class="st2" width="5.6" height="3.8"/>
					</g>
					<g>
						<line class="st2" x1="28.5" y1="70.1" x2="34.1" y2="70.1"/>
						<rect x="28.5" y="68.2" class="st2" width="5.6" height="3.8"/>
					</g>
					<g>
						<line class="st2" x1="37.8" y1="70.1" x2="43.4" y2="70.1"/>
						<rect x="37.8" y="68.2" class="st2" width="5.6" height="3.8"/>
					</g>
					<g>
						<line class="st2" x1="47.1" y1="70.1" x2="52.7" y2="70.1"/>
						<rect x="47.1" y="68.2" class="st2" width="5.6" height="3.8"/>
					</g>
					<g>
						<line class="st2" x1="56.4" y1="70.1" x2="62" y2="70.1"/>
						<rect x="56.4" y="68.2" class="st2" width="5.6" height="3.8"/>
					</g>
					<g>
						<line class="st2" x1="65.7" y1="70.1" x2="71.3" y2="70.1"/>
						<rect x="65.7" y="68.2" class="st2" width="5.6" height="3.8"/>
					</g>
				</g>
				<g>
					<g>
						<line class="st2" x1="9.9" y1="77.8" x2="15.4" y2="77.8"/>
						<rect x="9.9" y="75.9" class="st2" width="5.6" height="3.8"/>
					</g>
					<g>
						<line class="st2" x1="19.2" y1="77.8" x2="24.7" y2="77.8"/>
						<rect x="19.2" y="75.9" class="st2" width="5.6" height="3.8"/>
					</g>
					<g>
						<line class="st2" x1="28.5" y1="77.8" x2="34.1" y2="77.8"/>
						<rect x="28.5" y="75.9" class="st2" width="5.6" height="3.8"/>
					</g>
					<g>
						<line class="st2" x1="37.8" y1="77.8" x2="43.4" y2="77.8"/>
						<rect x="37.8" y="75.9" class="st2" width="5.6" height="3.8"/>
					</g>
					<g>
						<line class="st2" x1="47.1" y1="77.8" x2="52.7" y2="77.8"/>
						<rect x="47.1" y="75.9" class="st2" width="5.6" height="3.8"/>
					</g>
					<g>
						<line class="st2" x1="56.4" y1="77.8" x2="62" y2="77.8"/>
						<rect x="56.4" y="75.9" class="st2" width="5.6" height="3.8"/>
					</g>
					<g>
						<line class="st2" x1="65.7" y1="77.8" x2="71.3" y2="77.8"/>
						<rect x="65.7" y="75.9" class="st2" width="5.6" height="3.8"/>
					</g>
				</g>
				<g>
					<g>
						<line class="st2" x1="9.9" y1="85.6" x2="15.4" y2="85.6"/>
						<rect x="9.9" y="83.7" class="st2" width="5.6" height="3.8"/>
					</g>
					<g>
						<line class="st2" x1="19.2" y1="85.6" x2="24.7" y2="85.6"/>
						<rect x="19.2" y="83.7" class="st2" width="5.6" height="3.8"/>
					</g>
					<g>
						<line class="st2" x1="28.5" y1="85.6" x2="62.1" y2="85.6"/>
						<rect x="28.5" y="83.7" class="st2" width="33.6" height="3.8"/>
					</g>
					<g>
						<line class="st2" x1="65.7" y1="85.6" x2="71.3" y2="85.6"/>
						<rect x="65.7" y="83.7" class="st2" width="5.6" height="3.8"/>
					</g>
				</g>
			</g>
		</g>
	</g>
	<g>
		<g>
			<rect x="35.9" y="27.8" class="st1" width="1.9" height="3.8"/>
		</g>
		<g>
			<path class="st1" d="M53.5,53.3h-3.9v-3.8h3.9V53.3z M45.8,53.3h-3.9v-3.8h3.9V53.3z M38,53.3h-3.9v-3.8H38V53.3z M30.3,53.3
				h-3.9v-3.8h3.9V53.3z M22.5,53.3h-3.4c-0.2,0-0.3,0-0.5,0l0.1-3.8c0.1,0,0.2,0,0.4,0h3.4V53.3z M14.2,52.3
				c-1.4-0.6-2.7-1.4-3.8-2.5l2.6-2.8c0.8,0.7,1.7,1.3,2.7,1.7L14.2,52.3z M7.7,46.2c-0.7-1.4-1.1-2.8-1.2-4.4l3.8-0.4
				c0.1,1.1,0.4,2.1,0.9,3L7.7,46.2z M10.5,38.3l-3.7-1c0.4-1.5,1-2.9,1.9-4.1l3.1,2.2C11.2,36.3,10.7,37.3,10.5,38.3z M14.1,33.2
				l-2.2-3.2c1.3-0.9,2.7-1.5,4.1-1.9l0.9,3.7C15.9,32.2,15,32.6,14.1,33.2z M32,31.7h-3.9v-3.8H32V31.7z M24.2,31.7h-3.9v-3.8h3.9
				V31.7z"/>
		</g>
		<g>
			<rect x="57.4" y="49.5" class="st1" width="1.9" height="3.8"/>
		</g>
	</g>
	<g>
		<g>
			<rect x="40.8" y="48.5" class="st1" width="1.9" height="3.8"/>
		</g>
		<g>
			<path class="st1" d="M86.1,71.4h-2.4v-3.8h2.4c0.4,0,0.8,0,1.1-0.1l0.6,3.8C87.2,71.4,86.7,71.4,86.1,71.4z M92,69.8l-2-3.3
				c0.9-0.5,1.6-1.2,2.2-2l3.1,2.3C94.5,68,93.3,69,92,69.8z M97.3,62.6l-3.7-0.9c0.1-0.6,0.2-1.2,0.2-1.8c0-0.4,0-0.8-0.1-1.2
				l3.8-0.6c0.1,0.6,0.2,1.2,0.2,1.9C97.6,60.9,97.5,61.8,97.3,62.6z M92.6,55.9c-0.5-0.9-1.2-1.6-2.1-2.2l2.2-3.1
				c1.2,0.9,2.3,2,3.1,3.3L92.6,55.9z M87.7,52.5c-0.5-0.1-1.1-0.2-1.6-0.2h-1.7v-3.8h1.7c0.8,0,1.7,0.1,2.5,0.3L87.7,52.5z
				 M80.6,52.4h-3.8v-3.8h3.8V52.4z M73,52.4h-3.8v-3.8H73V52.4z M65.4,52.4h-3.8v-3.8h3.8V52.4z M57.8,52.4h-3.8v-3.8h3.8V52.4z
				 M50.3,52.4h-3.8v-3.8h3.8V52.4z"/>
		</g>
		<g>
			<rect x="78" y="67.6" class="st1" width="1.9" height="3.8"/>
		</g>
	</g>
	<g>
		<g>
			<g>
				<g>
					<g>
						<path class="st0" d="M54.3,4.5C40.4,4.1,28.7,15.1,28.2,29c-0.5,14,10.5,25.7,24.5,26.1c14,0.5,25.7-10.5,26.1-24.5
							C79.3,16.7,68.3,5,54.3,4.5z"/>
						<path class="st1" d="M53.5,57.1L53.5,57.1c-0.3,0-0.6,0-0.9,0C37.6,56.6,25.8,44,26.3,29C26.8,13.9,39.2,2.1,54.4,2.6
							c7.3,0.2,14,3.3,19,8.6c5,5.3,7.6,12.2,7.4,19.5C80.3,45.5,68.3,57.1,53.5,57.1z M53.5,6.4c-12.7,0-23,10-23.4,22.7
							C29.7,42,39.9,52.8,52.8,53.3c13,0.4,23.7-9.7,24.2-22.6c0.2-6.2-2-12.2-6.3-16.8c-4.3-4.6-10.1-7.2-16.3-7.4
							C54,6.4,53.8,6.4,53.5,6.4z"/>
					</g>
				</g>
				<g>
					<path class="st2" d="M76.4,23.9l-2.1,3.6l-3.6,6.9L68.6,30l-3.3,2.1l-2.1-4l-1.9,2.3l-0.9-0.3l-3-1.3l0.5,3.2l2.3,1l-4.3,9.7
						L54,43.8l-1.5-3.7l-0.9-6.2l-3-0.2l-1.2-2.3l1.8-4.6l2.5-0.5l1.5,1.1l3.8-0.8l-4-2.4l-3.4-0.7l-0.1-1l3.4-1.8l-1.3-2.2l3.4-2.9
						l3.5,1.4l6-1.7c0,0,2.5-1.2,5.2-2.5C72.9,15.7,75.3,19.5,76.4,23.9z"/>
					<path class="st2" d="M39.2,11l-1.4,2.3l-2.5,4.2c-0.1,0.1-0.1,0.3,0,0.4l1.6,2.7c0.1,0.1,0.2,0.2,0.3,0.2
						c0.1,0,0.2-0.1,0.3-0.2l1.5-2.2l2.7,3.5l-5.6,4.7L33,26.6c-0.1,0-0.3,0.1-0.3,0.2L32,28.7c0,0.1,0,0.2,0,0.3l2,2.7l-3.3-1.6
						l-0.9-1.2C30.1,21.6,33.8,15.1,39.2,11z"/>
					<path class="st2" d="M37.6,39.9l-2-4.1l2.3-4.9l6.2,6l-5.8,11l-1-2.6l0.2-5.3C37.7,40,37.7,40,37.6,39.9z"/>
					<path class="st2" d="M43.8,17.7l-2.5-5.7c3.9-1.8,6.5-2.2,7.5-2.3l-1.3,5.1L43.8,17.7z"/>
				</g>
			</g>
		</g>
	</g>
</g>
</svg>
