<?xml version="1.0" encoding="utf-8"?>
<!-- Generator: Adobe Illustrator 22.1.0, SVG Export Plug-In . SVG Version: 6.00 Build 0)  -->
<svg version="1.1" id="Layer_1" xmlns="http://www.w3.org/2000/svg" xmlns:xlink="http://www.w3.org/1999/xlink" x="0px" y="0px"
	 viewBox="0 0 135 50" style="enable-background:new 0 0 135 50;" xml:space="preserve">
<style type="text/css">
	.st0{fill:#3F3F3F;}
	.st1{fill:#3A3A3A;}
	.st2{fill:#FEFEFE;}
</style>
<title>Group 11</title>
<desc>Created with Sketch.</desc>
<g id="Page-1_1_">
	<g id="_x30_1-Home" transform="translate(-65.000000, -38.000000)">
		<g id="Menu" transform="translate(66.000000, 39.000000)">
			<g id="Group-11">
				<g id="Group-2">
					<g id="Page-1">
						<path id="Fill-1" class="st0" d="M0,0v48.5h44.4c0,0,5.6,0.4,5.5-5.6L50,0L0,0z"/>
						<path id="Stroke-3" class="st1" d="M-0.5-0.4l50.9,0l0,0.5l-0.1,42.9c0,2.8-1.1,4.6-3,5.5c-0.6,0.3-1.2,0.4-1.8,0.5
							C45.1,49,44.8,49,44.5,49c0,0-15,0-44.9,0V-0.4z M0.5,0.5v47.6l44,0c0.8,0,1.7-0.1,2.5-0.5c1.6-0.7,2.5-2.2,2.5-4.6l0.1-42.5
							L0.5,0.5z"/>
						<path id="Fill-5" class="st2" d="M33.3,40.9v-19l10.9,0V5.7L5.8,5.7l0,16.1h10.9v5.3H5.8v5.5h16.4V16.4h-11v-5.4h27.6v5.4
							H27.8v26.9h2.9C30.7,43.3,33.1,42.8,33.3,40.9"/>
						<polygon id="Fill-7" class="st2" points="5.8,43.3 22.3,43.3 22.3,38.2 5.8,38.2 						"/>
					</g>
				</g>
				<path id="STP" class="st0" d="M70.3,29.4c0.2,1.2,0.5,2,1,2.6c0.9,1.1,2.4,1.6,4.6,1.6c1.3,0,2.4-0.1,3.2-0.4
					c1.6-0.5,2.3-1.5,2.3-3c0-0.8-0.4-1.5-1.2-2c-0.8-0.5-2-0.9-3.6-1.2l-2.8-0.6c-2.8-0.6-4.7-1.3-5.7-2c-1.8-1.2-2.7-3-2.7-5.5
					c0-2.3,0.9-4.2,2.6-5.7s4.3-2.3,7.6-2.3c2.8,0,5.2,0.7,7.2,2.1s3,3.5,3.1,6.2h-5.3c-0.1-1.5-0.8-2.6-2.1-3.3
					c-0.9-0.4-1.9-0.6-3.2-0.6c-1.4,0-2.6,0.3-3.4,0.8c-0.9,0.6-1.3,1.3-1.3,2.3c0,0.9,0.4,1.6,1.3,2c0.5,0.3,1.7,0.7,3.5,1.1
					l4.6,1.1c2,0.5,3.5,1.1,4.5,1.9c1.6,1.2,2.4,2.9,2.4,5.2c0,2.3-0.9,4.3-2.8,5.8c-1.9,1.5-4.5,2.3-7.9,2.3
					c-3.5,0-6.2-0.8-8.2-2.3s-3-3.6-3-6.3H70.3z M110.3,11.7v4.5h-8v21.1h-5.6V16.3h-8v-4.5H110.3z M127.4,17
					c-0.7-0.6-1.7-0.9-3.1-0.9h-5.2v7.5h5.2c1.3,0,2.3-0.3,3.1-0.9s1.1-1.6,1.1-2.9S128.1,17.6,127.4,17z M131.6,26.3
					c-1.6,1.3-3.9,1.9-6.8,1.9h-5.6v9.2h-5.5V11.7h11.6c2.7,0,4.8,0.7,6.4,2c1.6,1.3,2.4,3.4,2.4,6.1C134,22.9,133.2,25,131.6,26.3z
					"/>
			</g>
		</g>
	</g>
</g>
</svg>
