<svg xmlns="http://www.w3.org/2000/svg" viewBox="0 0 1445.092 194.044"><title>Coinbase-icons</title><g id="Layer_2" data-name="Layer 2"><g id="Layer_1-2" data-name="Layer 1"><circle cx="1348.16" cy="96.931" r="96.931" fill="#36c"/><path d="M1354.057,56.887c0,1.289.069,2.584-.021,3.867-.073,1.052.265,1.469,1.334,1.694a21.668,21.668,0,0,1,10.913,5.516,19.9,19.9,0,0,1,5.565,10.16c.53,2.333-.636,3.77-3.032,3.817-1.933.037-3.868.011-5.8,0a2.938,2.938,0,0,1-3.073-2.14c-1.6-5.506-5.494-7.928-10.932-8.378a19.83,19.83,0,0,0-8.269.833c-4.076,1.418-6.059,4.352-6.073,8.67-.012,3.692,1.527,6.331,4.974,7.674a35.455,35.455,0,0,0,5.687,1.7c4.1.844,8.248,1.422,12.335,2.3a27.066,27.066,0,0,1,9.885,4.133,14.561,14.561,0,0,1,5.98,8.329c1.81,6.746,1.324,13.209-2.883,19.048a22.937,22.937,0,0,1-12.393,8.488,28.349,28.349,0,0,1-3.281.808c-.742.131-.937.466-.927,1.18.038,2.579.022,5.159.013,7.738-.01,2.749-1.063,3.808-3.781,3.817-1.666.006-3.332.019-5,0-2.142-.029-3.309-1.126-3.352-3.261q-.081-4.029,0-8.06c.019-.918-.221-1.273-1.192-1.431a25.937,25.937,0,0,1-12.616-5.28,21.587,21.587,0,0,1-7.523-13.476c-.387-2.177.812-3.515,3.035-3.559,2.041-.04,4.084-.026,6.125,0,2.089.023,3.013.737,3.479,2.829,1,4.471,3.4,7.758,7.868,9.177a26.51,26.51,0,0,0,5.365.987,17.779,17.779,0,0,0,8.388-1.079,10.5,10.5,0,0,0,6.618-13.021,7.328,7.328,0,0,0-3.934-4.659,30.03,30.03,0,0,0-9.222-2.706,76.611,76.611,0,0,1-13.185-2.878,22.342,22.342,0,0,1-7.792-4.4c-3.611-3.293-4.9-7.583-5.131-12.29-.495-10.24,5.939-17.628,15.749-20.4a16.7,16.7,0,0,1,2.824-.632c.909-.092,1.155-.479,1.14-1.337-.044-2.471-.02-4.943-.014-7.415.007-2.767,1.055-3.836,3.773-3.85,1.666-.009,3.332-.025,5,0a3.1,3.1,0,0,1,3.365,3.29C1354.09,54.091,1354.055,55.489,1354.057,56.887Z" fill="#fefefe"/><path d="M1420.676,100.212c-.192,16.122-6.363,32.442-18.782,46.282a70.871,70.871,0,0,1-31.423,20.32c-2.746.891-4.337-.231-4.369-3.07-.018-1.612-.015-3.225,0-4.837.022-2.423.839-3.625,3.146-4.5a59.9,59.9,0,0,0,21.5-13.858,57.393,57.393,0,0,0,15.822-27.952c5.215-22.779-.6-42.512-17.253-58.918a56.813,56.813,0,0,0-19.642-12.345c-2.776-1.076-3.572-2.231-3.578-5.213,0-1.505-.03-3.011.007-4.515.06-2.49,1.768-3.713,4.124-2.929,18.459,6.137,32.45,17.681,41.781,34.764C1417.839,74.114,1420.637,85.586,1420.676,100.212Z" fill="#fefefe"/><path d="M1275.215,99c.41-21.875,7.828-39.461,22.65-53.8a70.744,70.744,0,0,1,27.879-16.527c2.368-.764,4.058.436,4.117,2.937.038,1.611.017,3.224,0,4.837-.019,2.558-.875,3.864-3.275,4.782a59.763,59.763,0,0,0-19.123,11.694,58.376,58.376,0,0,0-18.814,33.5c-3.7,20.68,1.888,38.708,16.348,53.9a57.4,57.4,0,0,0,21.256,13.913c2.744,1.058,3.6,2.288,3.61,5.2.005,1.451.012,2.9,0,4.353-.026,2.706-1.685,3.908-4.247,3.084a70.79,70.79,0,0,1-25.221-14.181,71.764,71.764,0,0,1-24.237-43.72C1275.559,105.262,1275.442,101.485,1275.215,99Z" fill="#fefefe"/><circle cx="1097.448" cy="97.053" r="96.86" fill="#b9b9b9"/><path d="M1099.8,145.707q-22.342,0-44.686,0c-2.16,0-1.773.058-1.3-1.755,2.447-9.365,4.966-18.71,7.45-28.065.226-.852.385-1.723.574-2.585-.951-.2-1.674.446-2.483.724-2.225.764-4.4,1.658-6.616,2.466-.267.1-.593.447-.892.11-.216-.243.019-.527.089-.793q2.225-8.378,4.434-16.761a1.78,1.78,0,0,1,1.3-1.294c2.825-1.046,5.6-2.22,8.433-3.252a1.763,1.763,0,0,0,1.221-1.378q2.115-8.043,4.245-16.081,3.5-13.216,7.009-26.432,1.625-6.132,3.224-12.27c.324-1.239.317-1.25,1.59-1.251q17.165,0,34.33,0c1.37,0,1.385.017,1.046,1.316q-3.8,14.523-7.606,29.044c-.87,3.317-1.784,6.624-2.623,9.949-.1.41-.546.956-.118,1.3.391.312.9-.124,1.314-.28,2.293-.858,4.565-1.771,6.847-2.661.219-.085.445-.153.671-.219.834-.242.949-.153.74.675-.448,1.777-.919,3.548-1.391,5.319-1.006,3.768-2.022,7.533-3.022,11.3a1.748,1.748,0,0,1-1.23,1.37c-2.708.954-5.36,2.067-8.072,3.006a2.074,2.074,0,0,0-1.495,1.619c-1.3,4.952-2.635,9.9-3.958,14.845-.6,2.225-1.2,4.446-1.78,6.674-.252.971-.23.979.815,1.009.283.009.567,0,.851,0h52.063c1.817,0,1.844.008,1.395,1.73-1.885,7.228-3.8,14.449-5.669,21.682-.245.946-.843.947-1.59.946q-11.065-.018-22.13-.008Z" fill="#fefefe"/><circle cx="346.373" cy="97.184" r="96.86" fill="#627ee9"/><path d="M301.346,97.8a1.8,1.8,0,0,1,.407-.838q22.011-35.88,44.03-71.755a4.686,4.686,0,0,1,.412-.631c.174-.2.247-.014.313.127a3.459,3.459,0,0,0-.118,1.4q-.006,25.194,0,50.388c0,.472-.019.945-.029,1.417a1.785,1.785,0,0,0-.179.059q-10.6,4.728-21.19,9.458-10.98,4.908-21.961,9.816A3.512,3.512,0,0,1,301.346,97.8Z" fill="#fefefe"/><path d="M346.356,77.906c.01-.472.029-.945.029-1.417q0-25.194,0-50.388a3.459,3.459,0,0,1,.118-1.4c.4.193.54.606.749.947q15.3,24.932,30.579,49.87,6.671,10.875,13.35,21.746c.148.241.28.491.419.738-.327-.108-.667-.187-.981-.327q-3.793-1.686-7.58-3.391-6.715-3.012-13.431-6.025-9.561-4.276-19.131-8.535c-1.349-.6-2.666-1.272-4.065-1.753Z" fill="#c0cbf6"/><path d="M301.346,97.8a3.512,3.512,0,0,0,1.68-.558q10.988-4.892,21.961-9.816,10.593-4.734,21.19-9.458a1.785,1.785,0,0,1,.179-.059l.061.064c-.009.251-.025.5-.025.754q0,22.323,0,44.647c0,.313.031.627.048.94-.47.189-.764-.189-1.09-.377q-7.083-4.084-14.147-8.2l-27.79-16.144q-.979-.57-1.955-1.15c-.163-.1-.325-.2-.281-.439l.191-.209Z" fill="#c0cbf6"/><path d="M346.441,124.311c-.017-.313-.048-.627-.048-.94q0-22.324,0-44.647c0-.252.016-.5.025-.754,1.4.481,2.716,1.155,4.065,1.753q9.575,4.247,19.131,8.535,6.719,3,13.431,6.025,3.789,1.7,7.58,3.391c.314.14.654.219.981.327-.108.464-.529.6-.872.8q-5.745,3.351-11.5,6.687-7.387,4.281-14.782,8.554-6.607,3.838-13.2,7.7-1.875,1.094-3.757,2.173A2.29,2.29,0,0,1,346.441,124.311Z" fill="#8197ed"/><path d="M301.582,107.05c1.895.931,3.675,2.066,5.5,3.122q19.257,11.154,38.5,22.337c.272.158.539.326.808.489q0,1.89,0,3.78l-.012,32.51c-.3-.1-.4-.387-.562-.61q-21.93-30.35-43.854-60.7c-.184-.255-.35-.523-.525-.785Z" fill="#fdfdfe"/><path d="M346.375,169.288l.012-32.51q0-1.89,0-3.78,6.944-4.036,13.887-8.073,10.338-6,20.678-12,4.9-2.844,9.806-5.692c.109-.063.218-.127.332-.18s.234-.182.322-.038c.036.06-.07.216-.127.32a3.123,3.123,0,0,1-.213.312q-11.742,16.231-23.484,32.464-10.158,14.054-20.307,28.113A3,3,0,0,1,346.375,169.288Z" fill="#c0cbf6"/><path d="M301.434,107.191c-.047-.073-.146-.2-.133-.211.116-.113.211-.055.281.07Z" fill="#fdfdfe"/><path d="M301.369,97.791l-.191.209C301.2,97.889,301.239,97.8,301.369,97.791Z" fill="#fefefe"/><path d="M750.2,96.489A96.6,96.6,0,0,1,847.648.33c55.443.657,95.68,45.905,95.776,95.744.11,57.322-45.735,95.995-92.875,97.446C791.5,195.339,749.588,147.319,750.2,96.489Zm69.719-.433h.006c0,7.678-.057,15.357.024,23.034.043,4.066-1.935,4.989-5.034,5.039-1.974.031-3.95.008-5.923-.039-.858-.02-1.174.25-1.3,1.166-.473,3.369-.99,6.737-1.676,10.068-.284,1.383-.071,1.816,1.376,1.8,6.007-.06,12.014-.031,18.022-.046,2.283-.006,2.335.034,2.328,2.433-.012,4.716-.011,9.432-.048,14.148-.009,1.186.122,1.852,1.68,1.721,2.349-.2,4.729-.018,7.1-.012,2.186.007,2.2,0,2.2-2.259,0-4.789.012-9.578-.031-14.366-.007-.823.149-1.579,1.026-1.466,2.193.282,4.386.058,6.574.185.633.037,1.158.118,1.142.945-.027,1.387-.03,2.776-.029,4.164,0,3.794.026,7.589.013,11.384,0,1.049.323,1.464,1.491,1.41a79.159,79.159,0,0,1,8.034-.034c1.189.065,1.467-.32,1.467-1.318,0-5.181.056-10.363-.041-15.542-.02-1.1.137-1.326,1.244-1.393a68.656,68.656,0,0,0,14.264-2.231c6.23-1.728,11.6-4.842,14.591-10.713a27.722,27.722,0,0,0,2.28-18.766,16.028,16.028,0,0,0-4.676-8.436c-2.664-2.571-5.913-3.792-9.24-4.985-.622-.224-1.173-.315-.2-.881a16.5,16.5,0,0,0,2.264-1.484c4.518-3.747,6.2-8.569,6.057-14.416-.2-8.065-3.851-13.664-11.081-16.9a39.8,39.8,0,0,0-13.03-3.187c-2.2-.186-2.545-.476-2.53-2.265.04-4.837.11-9.675.12-14.512,0-.883-.107-1.643-1.5-1.539-2.293.172-4.611.046-6.918,0-2.488-.054-2.594.093-2.557,2.722.065,4.569.067,9.138.064,13.708,0,.788-.386,1.186-1.305,1.148a44.274,44.274,0,0,0-5.817.019c-1.475.134-1.733-.395-1.713-1.709.07-4.656.013-9.313.051-13.97.01-1.254-.075-2.025-1.756-1.906a65.234,65.234,0,0,1-7.5-.055c-1.416-.064-1.718.458-1.7,1.82.079,4.843-.057,9.69.019,14.533.022,1.388-.4,1.7-1.718,1.686-5.849-.071-11.7-.1-17.549-.019-3.048.045-2.669-.469-2.709,2.8-.032,2.563.169,5.142-.066,7.683-.118,1.278.342,1.208,1.19,1.2,2.331-.013,4.672-.117,6.992.047,3.431.241,6.068,1.807,6.043,6C819.881,80.325,819.914,88.19,819.914,96.056Z" fill="#3c6"/><path d="M819.914,96.056c0-7.866-.033-15.731.013-23.6.025-4.189-2.612-5.755-6.043-6-2.32-.164-4.661-.06-6.992-.047-.848.005-1.308.075-1.19-1.2.235-2.541.034-5.12.066-7.683.04-3.265-.339-2.751,2.709-2.8,5.849-.084,11.7-.052,17.549.019,1.315.017,1.74-.3,1.718-1.686-.076-4.843.06-9.69-.019-14.533-.022-1.362.28-1.884,1.7-1.82a65.234,65.234,0,0,0,7.5.055c1.681-.119,1.766.652,1.756,1.906-.038,4.657.019,9.314-.051,13.97-.02,1.314.238,1.843,1.713,1.709a44.274,44.274,0,0,1,5.817-.019c.919.038,1.3-.36,1.305-1.148,0-4.57,0-9.139-.064-13.708-.037-2.629.069-2.776,2.557-2.722,2.307.049,4.625.175,6.918,0,1.389-.1,1.5.656,1.5,1.539-.01,4.837-.08,9.675-.12,14.512-.015,1.789.326,2.079,2.53,2.265a39.8,39.8,0,0,1,13.03,3.187c7.23,3.24,10.881,8.839,11.081,16.9.144,5.847-1.539,10.669-6.057,14.416a16.5,16.5,0,0,1-2.264,1.484c-.972.566-.421.657.2.881,3.327,1.193,6.576,2.414,9.24,4.985a16.028,16.028,0,0,1,4.676,8.436,27.722,27.722,0,0,1-2.28,18.766c-2.988,5.871-8.361,8.985-14.591,10.713a68.656,68.656,0,0,1-14.264,2.231c-1.107.067-1.264.294-1.244,1.393.1,5.179.039,10.361.041,15.542,0,1-.278,1.383-1.467,1.318a79.159,79.159,0,0,0-8.034.034c-1.168.054-1.494-.361-1.491-1.41.013-3.795-.01-7.59-.013-11.384,0-1.388,0-2.777.029-4.164.016-.827-.509-.908-1.142-.945-2.188-.127-4.381.1-6.574-.185-.877-.113-1.033.643-1.026,1.466.043,4.788.034,9.577.031,14.366,0,2.258-.015,2.266-2.2,2.259-2.367-.006-4.747-.186-7.1.012-1.558.131-1.689-.535-1.68-1.721.037-4.716.036-9.432.048-14.148.007-2.4-.045-2.439-2.328-2.433-6.008.015-12.015-.014-18.022.046-1.447.015-1.66-.418-1.376-1.8.686-3.331,1.2-6.7,1.676-10.068.129-.916.445-1.186,1.3-1.166,1.973.047,3.949.07,5.923.039,3.1-.05,5.077-.973,5.034-5.039-.081-7.677-.024-15.356-.024-23.034Zm18.979,16.175h.079c0,3.39.089,6.783-.042,10.167-.055,1.4.381,1.8,1.684,1.8,5.279-.033,10.571.128,15.789-.865,4.055-.772,8.023-1.8,10.911-5.1a10.044,10.044,0,0,0-.188-12.733,16.5,16.5,0,0,0-8.251-4.3C853,99.7,846.984,100.023,841,99.95c-1.846-.023-2.136.81-2.116,2.311C838.925,105.584,838.893,108.908,838.893,112.231Zm.063-34.079h.027c0,3.188.03,6.376-.02,9.563-.013.855.1,1.367,1.1,1.366,4.7,0,9.41.182,14.032-.835,4.087-.9,7.752-2.473,9.738-6.589,1.162-2.41.451-7.134-1.242-9.266-2.265-2.854-5.419-3.78-8.7-4.5-4.443-.976-8.968-.695-13.473-.734-1.22-.011-1.5.469-1.482,1.589C839,71.881,838.956,75.016,838.956,78.152Z" fill="#fff"/><path d="M838.893,112.231c0-3.323.032-6.647-.014-9.97-.02-1.5.27-2.334,2.116-2.311,5.989.073,12.009-.247,17.88,1.241a16.5,16.5,0,0,1,8.251,4.3,10.044,10.044,0,0,1,.188,12.733c-2.888,3.307-6.856,4.333-10.911,5.1-5.218.993-10.51.832-15.789.865-1.3.008-1.739-.4-1.684-1.8.131-3.384.042-6.777.042-10.167Z" fill="#3c6"/><path d="M838.956,78.152c0-3.136.039-6.271-.021-9.405-.021-1.12.262-1.6,1.482-1.589,4.5.039,9.03-.242,13.473.734,3.279.719,6.433,1.645,8.7,4.5,1.693,2.132,2.4,6.856,1.242,9.266-1.986,4.116-5.651,5.691-9.738,6.589-4.622,1.017-9.337.831-14.032.835-.994,0-1.11-.511-1.1-1.366.05-3.187.02-6.375.02-9.563Z" fill="#3c6"/><path d="M500.04,96.489A96.6,96.6,0,0,1,597.492.33c55.443.657,95.681,45.905,95.776,95.744.11,57.322-45.734,95.995-92.874,97.446C541.343,195.339,499.432,147.319,500.04,96.489Zm69.718-.433h.007c0,7.678-.058,15.357.023,23.034.043,4.066-1.935,4.989-5.034,5.039-1.974.031-3.95.008-5.923-.039-.857-.02-1.174.25-1.3,1.166-.472,3.369-.99,6.737-1.675,10.068-.285,1.383-.072,1.816,1.375,1.8,6.007-.06,12.015-.031,18.022-.046,2.283-.006,2.335.034,2.329,2.433-.013,4.716-.012,9.432-.049,14.148-.009,1.186.122,1.852,1.68,1.721,2.349-.2,4.729-.018,7.1-.012,2.185.007,2.2,0,2.2-2.259,0-4.789.012-9.578-.031-14.366-.007-.823.149-1.579,1.026-1.466,2.193.282,4.386.058,6.574.185.634.037,1.158.118,1.142.945-.027,1.387-.029,2.776-.028,4.164,0,3.794.025,7.589.012,11.384,0,1.049.324,1.464,1.491,1.41a79.159,79.159,0,0,1,8.034-.034c1.189.065,1.468-.32,1.467-1.318,0-5.181.056-10.363-.04-15.542-.021-1.1.136-1.326,1.244-1.393a68.647,68.647,0,0,0,14.263-2.231c6.23-1.728,11.6-4.842,14.592-10.713a27.727,27.727,0,0,0,2.279-18.766,16.028,16.028,0,0,0-4.676-8.436c-2.664-2.571-5.912-3.792-9.239-4.985-.623-.224-1.174-.315-.2-.881a16.436,16.436,0,0,0,2.264-1.484c4.518-3.747,6.2-8.569,6.057-14.416-.2-8.065-3.851-13.664-11.08-16.9a39.806,39.806,0,0,0-13.031-3.187c-2.2-.186-2.545-.476-2.53-2.265.04-4.837.11-9.675.12-14.512,0-.883-.107-1.643-1.5-1.539-2.293.172-4.611.046-6.918,0-2.487-.054-2.594.093-2.557,2.722.065,4.569.067,9.138.064,13.708,0,.788-.386,1.186-1.3,1.148a44.274,44.274,0,0,0-5.817.019c-1.475.134-1.732-.395-1.713-1.709.07-4.656.014-9.313.051-13.97.01-1.254-.075-2.025-1.755-1.906a65.249,65.249,0,0,1-7.5-.055c-1.416-.064-1.718.458-1.7,1.82.079,4.843-.056,9.69.019,14.533.022,1.388-.4,1.7-1.718,1.686-5.849-.071-11.7-.1-17.548-.019-3.049.045-2.669-.469-2.71,2.8-.032,2.563.169,5.142-.066,7.683-.118,1.278.342,1.208,1.19,1.2,2.332-.013,4.672-.117,6.992.047,3.431.241,6.068,1.807,6.044,6C569.725,80.325,569.758,88.19,569.758,96.056Z" fill="#f6931a"/><path d="M569.758,96.056c0-7.866-.033-15.731.014-23.6.024-4.189-2.613-5.755-6.044-6-2.32-.164-4.66-.06-6.992-.047-.848.005-1.308.075-1.19-1.2.235-2.541.034-5.12.066-7.683.041-3.265-.339-2.751,2.71-2.8,5.848-.084,11.7-.052,17.548.019,1.315.017,1.74-.3,1.718-1.686-.075-4.843.06-9.69-.019-14.533-.022-1.362.28-1.884,1.7-1.82a65.249,65.249,0,0,0,7.5.055c1.68-.119,1.765.652,1.755,1.906-.037,4.657.019,9.314-.051,13.97-.019,1.314.238,1.843,1.713,1.709A44.274,44.274,0,0,1,596,54.335c.919.038,1.3-.36,1.3-1.148,0-4.57,0-9.139-.064-13.708-.037-2.629.07-2.776,2.557-2.722,2.307.049,4.625.175,6.918,0,1.389-.1,1.5.656,1.5,1.539-.01,4.837-.08,9.675-.12,14.512-.015,1.789.327,2.079,2.53,2.265a39.806,39.806,0,0,1,13.031,3.187c7.229,3.24,10.88,8.839,11.08,16.9.144,5.847-1.539,10.669-6.057,14.416a16.436,16.436,0,0,1-2.264,1.484c-.972.566-.421.657.2.881,3.327,1.193,6.575,2.414,9.239,4.985a16.028,16.028,0,0,1,4.676,8.436,27.727,27.727,0,0,1-2.279,18.766c-2.989,5.871-8.362,8.985-14.592,10.713a68.647,68.647,0,0,1-14.263,2.231c-1.108.067-1.265.294-1.244,1.393.1,5.179.039,10.361.04,15.542,0,1-.278,1.383-1.467,1.318a79.159,79.159,0,0,0-8.034.034c-1.167.054-1.494-.361-1.491-1.41.013-3.795-.009-7.59-.012-11.384,0-1.388,0-2.777.028-4.164.016-.827-.508-.908-1.142-.945-2.188-.127-4.381.1-6.574-.185-.877-.113-1.033.643-1.026,1.466.043,4.788.035,9.577.031,14.366,0,2.258-.015,2.266-2.2,2.259-2.368-.006-4.748-.186-7.1.012-1.558.131-1.689-.535-1.68-1.721.037-4.716.036-9.432.049-14.148.006-2.4-.046-2.439-2.329-2.433-6.007.015-12.015-.014-18.022.046-1.447.015-1.66-.418-1.375-1.8.685-3.331,1.2-6.7,1.675-10.068.129-.916.446-1.186,1.3-1.166,1.973.047,3.949.07,5.923.039,3.1-.05,5.077-.973,5.034-5.039-.081-7.677-.023-15.356-.023-23.034Zm18.98,16.175h.079c0,3.39.088,6.783-.043,10.167-.054,1.4.382,1.8,1.684,1.8,5.279-.033,10.571.128,15.789-.865,4.055-.772,8.023-1.8,10.911-5.1a10.042,10.042,0,0,0-.188-12.733,16.5,16.5,0,0,0-8.251-4.3c-5.871-1.488-11.89-1.168-17.88-1.241-1.846-.023-2.136.81-2.115,2.311C588.769,105.584,588.738,108.908,588.738,112.231Zm.062-34.079h.027c0,3.188.03,6.376-.02,9.563-.013.855.1,1.367,1.1,1.366,4.7,0,9.41.182,14.032-.835,4.087-.9,7.752-2.473,9.738-6.589,1.162-2.41.451-7.134-1.242-9.266-2.265-2.854-5.418-3.78-8.7-4.5-4.444-.976-8.969-.695-13.473-.734-1.221-.011-1.5.469-1.483,1.589C588.839,71.881,588.8,75.016,588.8,78.152Z" fill="#fefefe"/><path d="M588.738,112.231c0-3.323.031-6.647-.014-9.97-.021-1.5.269-2.334,2.115-2.311,5.99.073,12.009-.247,17.88,1.241a16.5,16.5,0,0,1,8.251,4.3,10.042,10.042,0,0,1,.188,12.733c-2.888,3.307-6.856,4.333-10.911,5.1-5.218.993-10.51.832-15.789.865-1.3.008-1.738-.4-1.684-1.8.131-3.384.043-6.777.043-10.167Z" fill="#f6931a"/><path d="M588.8,78.152c0-3.136.039-6.271-.021-9.405-.021-1.12.262-1.6,1.483-1.589,4.5.039,9.029-.242,13.473.734,3.279.719,6.432,1.645,8.7,4.5,1.693,2.132,2.4,6.856,1.242,9.266-1.986,4.116-5.651,5.691-9.738,6.589-4.622,1.017-9.337.831-14.032.835-.994,0-1.11-.511-1.1-1.366.05-3.187.02-6.375.02-9.563Z" fill="#f6931a"/><circle cx="96.357" cy="97.213" r="96.357" fill="#fff"/><path d="M130.6,80.468a15.987,15.987,0,0,0-.782-1.525c-6.126-10.318-15.4-15.908-27.126-17.191-10.511-1.151-21.105-.262-31.661-.419a2.3,2.3,0,0,0-.693.225V81.151h60.312A2.376,2.376,0,0,0,130.6,80.468Z" fill="#fab62a"/><path d="M70.348,133.485c11.229-.41,22.367.718,33.444-.7a34.588,34.588,0,0,0,22.56-11.972,25.218,25.218,0,0,0,4.483-7.064H70.348Z" fill="#fab62a"/><path d="M70.349,92.046v10.816h63.776a30.517,30.517,0,0,0-.06-10.816Z" fill="#fab62a"/><path d="M96.357.856a96.357,96.357,0,1,0,96.357,96.357A96.357,96.357,0,0,0,96.357.856Zm57.575,91.013h-8.793v11.1h8.754v10.6H142.438a44,44,0,0,1-14.025,19.061,45.769,45.769,0,0,1-27.132,10c-13.73.376-27.478.094-41.518.094V113.686h-12.6V103.027H59.627V91.972H47.166V81.3H59.743V51.782c3.159,0,6.071-.039,8.981.007,11.454.185,22.955-.787,34.356.421,18.311,1.941,31.837,10.925,39.157,28.268a8.549,8.549,0,0,0,.5.838h11.194Z" fill="#fab62a"/></g></g></svg>