<?xml version="1.0" encoding="utf-8"?>
<!-- Generator: Adobe Illustrator 22.1.0, SVG Export Plug-In . SVG Version: 6.00 Build 0)  -->
<svg version="1.1" id="Layer_1" xmlns="http://www.w3.org/2000/svg" xmlns:xlink="http://www.w3.org/1999/xlink" x="0px" y="0px"
	 viewBox="0 0 100 100" style="enable-background:new 0 0 100 100;" xml:space="preserve">
<style type="text/css">
	.st0{fill:#FFFFFF;}
	.st1{fill:#292D33;}
	.st2{fill:#ACB3B3;}
	.st3{fill:#00FD5E;}
	.st4{fill:none;}
	.st5{fill:#4984E9;}
	.st6{font-family:'Rubik-Medium';}
	.st7{font-size:12.9565px;}
</style>
<g>
	<g>
		<g>
			<path class="st0" d="M28.4,69.2l-3.5-3.7V54.7c-0.5-2.7-2.4-5.4-5.2-5.4h-1.7c-0.1,0-0.1,0-0.2,0l0.2,19.5l2.7,4.5
				C23.6,72.9,26.3,71.4,28.4,69.2z"/>
			<path class="st1" d="M19.9,75l-3.5-5.8l-0.2-21.4l1.5-0.1c0.1,0,0.2,0,0.3,0h1.7c3.7,0,6.2,3.4,6.8,6.8v0.2v10.2l4.2,4.4
				l-1.1,1.1c-2.5,2.5-5.4,4-8.6,4.4L19.9,75z M19.7,68.3l1.9,3.1c1.7-0.4,3.2-1.2,4.6-2.3l-2.8-3V54.8c-0.4-1.9-1.7-3.9-3.5-3.9
				h-0.2L19.7,68.3z"/>
		</g>
		<g>
			<path class="st0" d="M26.1,87.7L11.4,63l-0.2-19.5c0,0,0.1,0,0.2,0H13c2.7,0,4.7,2.7,5.2,5.4v10.8l4,4.3l11.6,11.6l1-1l-7.1-7.2
				c-1.8-1.9-1.2-5.4,0.7-7.2c0,0,0.5-0.4,0.5-0.4l12.8,12.8l0.6,9.3v14.5"/>
			<path class="st1" d="M43.9,96.4h-3.2V81.9l-0.6-8.7L28.9,62c-0.8,1.3-1,3.2,0,4.2l8.3,8.2l-3.3,3.4L21.1,65.2l-4.5-4.8V49.1
				c-0.4-1.9-1.7-3.9-3.5-3.9h-0.2L13,62.6l14.5,24.3l-2.7,1.7l-15-25.1L9.6,42.1l1.5-0.1c0.1,0,0.2,0,0.3,0H13
				c3.7,0,6.2,3.4,6.8,6.8V49v10.2l3.6,3.8l1.6,1.6c0-2,0.9-4.2,2.3-5.5l0.1-0.1l1.6-1.4l14.3,14.3l0.7,10L43.9,96.4L43.9,96.4z"/>
		</g>
		<polyline class="st2" points="47.6,100 47.6,91 21.8,91 21.8,100 		"/>
	</g>
	<g>
		<g>
			<path class="st0" d="M71.6,69.2l3.5-3.7V54.7c0.4-2.7,2.4-5.4,5.2-5.4h1.7c0.1,0,0.1,0,0.2,0l-0.2,19.5l-2.7,4.5
				C76.4,72.9,73.8,71.4,71.6,69.2z"/>
			<path class="st1" d="M80.2,75l-1-0.1c-3.2-0.4-6.2-2-8.6-4.4l-1.1-1.1l4.2-4.4V54.5c0.6-3.4,3-6.8,6.8-6.8H82c0.1,0,0.2,0,0.3,0
				l1.5,0.1l0,1.5l-0.2,19.9L80.2,75z M73.9,69.1c1.4,1.1,3,1.9,4.6,2.3l1.9-3.1l0.2-17.5h-0.2c-1.8,0-3.2,2-3.5,3.9v11.3L73.9,69.1
				z"/>
		</g>
		<g>
			<path class="st0" d="M73.9,87.7L88.6,63l0.2-19.5c0,0-0.1,0-0.2,0H87c-2.7,0-4.7,2.7-5.2,5.4v10.8l-4,4.3L66.2,75.6l-1-1l7.2-7.1
				c1.8-1.9,1.2-5.4-0.7-7.2c0,0-0.5-0.4-0.5-0.4L58.3,72.6l-0.6,9.3v14.5"/>
			<path class="st1" d="M59.3,96.4h-3.2V81.8l0.6-9.9L71,57.6l1.7,1.4c1.2,1.1,2,2.8,2.2,4.5c0,0.3,0,0.6,0,0.9l1.6-1.6l3.5-3.8
				V48.6c0.6-3.4,3-6.8,6.8-6.8h1.7c0.1,0,0.2,0,0.3,0l1.5,0.1l0,1.5l-0.2,19.9l-15,25.1l-2.7-1.7L87,62.6l0.2-17.5h-0.2
				c-1.8,0-3.2,2-3.5,3.9v11.3l-4.5,4.7L66.1,77.8l-3.3-3.4l8.3-8.3c0.5-0.5,0.7-1.3,0.6-2.3c-0.1-0.7-0.3-1.3-0.7-1.8L59.8,73.3
				l-0.6,8.7L59.3,96.4L59.3,96.4z"/>
		</g>
		<polyline class="st2" points="52.4,100 52.4,91 78.2,91 78.2,100 		"/>
	</g>
	<path class="st3" d="M50.2,58.6c-9.2,0-16.7-7.5-16.7-16.7c0-9.2,7.5-16.7,16.7-16.7c9.2,0,16.7,7.5,16.7,16.7
		C66.9,51.2,59.4,58.6,50.2,58.6z"/>
	<g>
		<g>
			<path class="st1" d="M51.6,44.4l-4.7-1.8c-1.9-1.2-2.4-2.7-2.4-3.6V37c0-2.5,2-4.5,4.5-4.5h2.3c2.5,0,4.5,2,4.5,4.5v0.9h-3.2V37
				c0-0.7-0.6-1.3-1.3-1.3h-2.3c-0.7,0-1.3,0.6-1.3,1.3V39c0,0.1,0.1,0.4,0.8,0.8l4.2,1.6L51.6,44.4z"/>
		</g>
		<g>
			<path class="st1" d="M51.4,51.8h-2.3c-2.5,0-4.5-2-4.5-4.5v-0.9h3.2v0.9c0,0.7,0.6,1.3,1.3,1.3h2.3c0.7,0,1.3-0.6,1.3-1.3v-1.9
				c0,0-0.1-0.4-0.8-0.9l-4-1.6l1.1-3l4.4,1.8c2,1.3,2.4,2.7,2.4,3.6v1.9C55.8,49.7,53.8,51.8,51.4,51.8z"/>
		</g>
		<g>
			<line class="st4" x1="50.4" y1="30.2" x2="50.4" y2="34.5"/>
			<rect x="48.8" y="30.2" class="st1" width="3.2" height="4.3"/>
		</g>
		<g>
			<line class="st4" x1="50.4" y1="49.4" x2="50.4" y2="53.8"/>
			<rect x="48.8" y="49.4" class="st1" width="3.2" height="4.3"/>
		</g>
	</g>
</g>
<g>
	<g>
		<circle class="st5" cx="14.9" cy="14.9" r="14.9"/>
		<text transform="matrix(1 0 0 1 10.6299 18.9291)" class="st0 st6 st7">3</text>
	</g>
</g>
</svg>
