<?xml version="1.0" encoding="utf-8"?>
<!-- Generator: Adobe Illustrator 22.1.0, SVG Export Plug-In . SVG Version: 6.00 Build 0)  -->
<svg version="1.1" id="Layer_1" xmlns="http://www.w3.org/2000/svg" xmlns:xlink="http://www.w3.org/1999/xlink" x="0px" y="0px"
	 viewBox="0 0 100 100" style="enable-background:new 0 0 100 100;" xml:space="preserve">
<style type="text/css">
	.st0{fill:#FFFFFF;stroke:#292D33;stroke-width:3.2175;}
	.st1{fill:#00FD5E;}
	.st2{fill:#FFFFFF;}
	.st3{fill:#292D33;}
	.st4{fill:#ACB3B3;}
	.st5{fill:#4984E9;}
	.st6{font-family:'Rubik-Medium';}
	.st7{font-size:12.9565px;}
</style>
<g>
	<g>
		<g>
			<g>
				<g>
					<path class="st0" d="M48.1,67.6"/>
				</g>
			</g>
		</g>
		<rect x="42.8" y="79.9" class="st1" width="10.5" height="12.2"/>
		<g>
			<polyline class="st2" points="44.4,79.8 44.4,76.2 51.7,76.2 51.7,79.8 			"/>
			<polygon class="st3" points="46,79.8 42.8,79.8 42.8,74.6 53.3,74.6 53.3,79.8 50.1,79.8 50.1,77.9 46,77.9 			"/>
		</g>
		<g>
			<path class="st2" d="M51.7,92.1c0,0.6,0,1.2,0,1.8c-2,2-5.3,2-7.3,0c0-0.6,0-1.2,0-1.8"/>
			<path class="st3" d="M48.1,97L48.1,97c-1.8,0-3.5-0.7-4.8-2l-0.5-0.5v-2.4H46v1c0.6,0.4,1.3,0.7,2,0.7l0,0c0.8,0,1.5-0.2,2-0.7
				v-1h3.2v2.4L52.9,95C51.6,96.3,49.9,97,48.1,97z"/>
		</g>
		<g>
			<g>
				<g>
					<rect x="49.2" y="69.9" class="st3" width="3.2" height="5.5"/>
				</g>
			</g>
			<g>
				<g>
					<rect x="43.7" y="69.9" class="st3" width="3.2" height="5.5"/>
				</g>
			</g>
		</g>
		<g>
			<path class="st2" d="M68.7,51c0-5.5-2.1-10.7-6-14.5c-3.9-3.9-9.1-6-14.6-6c-5.5,0-10.6,2.2-14.5,6c-8,8-8,21.1,0,29.1
				c3.9,3.9,9.1,6,14.6,6c5.5,0,10.6-2.2,14.5-6C66.5,61.7,68.7,56.5,68.7,51z"/>
			<path class="st3" d="M48.1,73.2c-5.9,0-11.5-2.3-15.7-6.5c-4.2-4.2-6.5-9.8-6.5-15.7s2.3-11.5,6.5-15.7c4.2-4.2,9.8-6.5,15.7-6.5
				c6,0,11.5,2.3,15.7,6.5c4.2,4.2,6.5,9.8,6.5,15.7s-2.3,11.5-6.5,15.7C59.6,70.8,54,73.2,48.1,73.2L48.1,73.2z M48.1,32
				c-5.1,0-9.8,2-13.4,5.5c-3.6,3.6-5.5,8.3-5.5,13.4s2,9.8,5.5,13.4c3.6,3.6,8.3,5.5,13.4,5.5v1.6l0-1.6c5.1,0,9.8-2,13.4-5.5
				c3.6-3.6,5.5-8.3,5.5-13.4c0-5.1-2-9.8-5.5-13.4C57.9,34,53.1,32,48.1,32z"/>
		</g>
		<g>
			<path class="st4" d="M59.3,62.2c-3,3-7,4.7-11.2,4.7c-8.8,0-15.9-7.1-15.9-15.9c0-4.2,1.7-8.2,4.6-11.2c3-3,7-4.7,11.2-4.7
				c4.2,0,8.2,1.7,11.2,4.6c3,3,4.6,7,4.6,11.2C63.9,55.2,62.3,59.2,59.3,62.2z"/>
			<g>
				<path class="st2" d="M37.5,51h-3.2c0-3.6,1.4-7,3.9-9.5c2.6-2.6,5.9-4,9.6-4v3.2c-2.7,0-5.3,1.1-7.2,3
					C38.6,45.7,37.5,48.3,37.5,51z"/>
			</g>
		</g>
	</g>
	<g>
		<path class="st3" d="M87.3,47.7C76.8,33,62.9,24.9,48.3,24.9v-3.2c15.7,0,30.5,8.6,41.6,24.1L87.3,47.7z"/>
	</g>
	<g>
		<path class="st3" d="M68.9,67.2l-1.7-2.7c5.6-3.4,10.8-8.2,15.3-14.3C73.1,37.4,61,30.5,48.3,30.5s-24.9,7-34.3,19.7
			c4.4,6,9.4,10.7,15,14.1L27.3,67c-6.2-3.8-11.7-9.1-16.6-15.9l-0.7-0.9l0.7-0.9c10.1-14.2,23.5-22,37.6-22s27.5,7.8,37.6,22
			l0.7,0.9l-0.7,0.9C80.9,58,75.3,63.5,68.9,67.2z"/>
	</g>
</g>
<g>
	<g>
		<circle class="st5" cx="14.9" cy="14.7" r="14.9"/>
		<text transform="matrix(1 0 0 1 10.6395 18.7147)" class="st2 st6 st7">2</text>
	</g>
</g>
</svg>
