<?xml version="1.0" encoding="utf-8"?>
<!-- Generator: Adobe Illustrator 22.1.0, SVG Export Plug-In . SVG Version: 6.00 Build 0)  -->
<svg version="1.1" id="Layer_1" xmlns="http://www.w3.org/2000/svg" xmlns:xlink="http://www.w3.org/1999/xlink" x="0px" y="0px"
	 viewBox="0 0 100 100" style="enable-background:new 0 0 100 100;" xml:space="preserve">
<style type="text/css">
	.st0{fill:#4984E9;}
	.st1{fill:#FFFFFF;}
	.st2{font-family:'Rubik-Medium';}
	.st3{font-size:12.9565px;}
	.st4{fill:#292D33;}
	.st5{fill:#00FD5E;}
	.st6{fill:#ACB3B3;}
</style>
<g>
	<circle class="st0" cx="14.9" cy="14.9" r="14.9"/>
	<text transform="matrix(1 0 0 1 11.1035 18.9288)" class="st1 st2 st3">1</text>
</g>
<g>
	<g>
		<g>
			<polygon class="st4" points="49.5,57.8 47.9,55.1 50.1,53.8 52.3,55.1 50.7,57.8 50.1,57.5 			"/>
		</g>
		<g>
			<path class="st4" d="M82.3,75.9l-2.7-1.5l1.6-2.8l2.7,1.5L82.3,75.9z M77,72.9l-2.7-1.5l1.6-2.8l2.7,1.5L77,72.9z M71.7,69.9
				L69,68.4l1.6-2.8l2.7,1.5L71.7,69.9z M66.5,66.9l-2.7-1.5l1.6-2.8l2.7,1.5L66.5,66.9z M61.2,63.9l-2.7-1.5l1.6-2.8l2.7,1.5
				L61.2,63.9z M55.9,60.9l-2.7-1.5l1.6-2.8l2.7,1.5L55.9,60.9z"/>
		</g>
		<g>
			<polygon class="st4" points="86.5,79 85.9,78 84.9,77.4 85.2,76.8 84.9,76.2 85.9,75.6 86.5,74.6 90.4,76.8 			"/>
		</g>
		<g>
			<path class="st4" d="M54.7,97.4l-1.6-2.8l2.7-1.5l1.6,2.8L54.7,97.4z M60,94.3l-1.6-2.8l2.7-1.5l1.6,2.8L60,94.3z M65.3,91.3
				l-1.6-2.8l2.7-1.5l1.6,2.8L65.3,91.3z M70.6,88.2L69,85.4l2.7-1.5l1.6,2.8L70.6,88.2z M75.9,85.1l-1.6-2.8l2.7-1.5l1.6,2.8
				L75.9,85.1z M81.2,82.1l-1.6-2.8l2.7-1.5l1.6,2.8L81.2,82.1z"/>
		</g>
		<g>
			<polygon class="st4" points="49.9,100.2 47.7,98.9 49.3,96.1 49.8,96.5 50.4,96.1 52.1,98.9 			"/>
		</g>
		<g>
			<path class="st4" d="M45.1,97.4l-2.7-1.5l1.6-2.8l2.7,1.5L45.1,97.4z M39.8,94.4l-2.7-1.5l1.6-2.8l2.7,1.5L39.8,94.4z M34.5,91.4
				l-2.7-1.5l1.6-2.8l2.7,1.5L34.5,91.4z M29.2,88.4l-2.7-1.5l1.6-2.8l2.7,1.5L29.2,88.4z M24,85.4l-2.7-1.5l1.6-2.8l2.7,1.5
				L24,85.4z M18.7,82.4L16,80.9l1.6-2.8l2.7,1.5L18.7,82.4z"/>
		</g>
		<g>
			<polygon class="st4" points="13.5,79.3 9.6,77.2 13.4,75 14.1,76 15,76.5 14.7,77.2 15,77.8 14.1,78.3 			"/>
		</g>
		<g>
			<path class="st4" d="M17.7,76.2l-1.6-2.8l2.7-1.5l1.6,2.8L17.7,76.2z M23,73.2l-1.6-2.8l2.7-1.5l1.6,2.8L23,73.2z M28.3,70.1
				l-1.6-2.8l2.7-1.5l1.6,2.8L28.3,70.1z M33.6,67L32,64.2l2.7-1.5l1.6,2.8L33.6,67z M38.9,64l-1.6-2.8l2.7-1.5l1.6,2.8L38.9,64z
				 M44.2,60.9l-1.6-2.8l2.7-1.5l1.6,2.8L44.2,60.9z"/>
		</g>
	</g>
	<g>
		<g>
			<polygon class="st5" points="50.1,32.5 74.9,46.7 49.9,61.1 25.1,46.9 			"/>
			<path class="st4" d="M49.9,62.7c-0.3,0-0.6,0-0.8-0.2L24.3,48.3c-0.5-0.3-0.8-0.8-0.8-1.4c0-0.6,0.3-1.1,0.8-1.4l25-14.4
				c0.5-0.3,1.1-0.3,1.6,0l24.8,14.2c0.5,0.3,0.8,0.8,0.8,1.4s-0.3,1.1-0.8,1.4l-25,14.4C50.4,62.7,50.2,62.7,49.9,62.7z M28.3,46.9
				l21.6,12.4l21.8-12.5L50.1,34.4L28.3,46.9z"/>
		</g>
		<g>
			<g>
				<polygon class="st6" points="74.8,46.5 75.1,75.4 50.1,89.8 49.8,61 				"/>
			</g>
			<g>
				<g>
					<path class="st4" d="M50.2,91.6c-0.3,0-0.6,0-0.8-0.2c-0.5-0.3-0.8-0.8-0.8-1.4l-0.3-28.8c0-0.6,0.3-1.1,0.8-1.4l25-14.4
						c0.5-0.3,1.1-0.3,1.6,0s0.8,0.8,0.8,1.4l0.3,28.8c0,0.6-0.3,1.1-0.8,1.4L51,91.4C50.8,91.5,50.5,91.6,50.2,91.6z M51.5,62.1
						l0.2,25.1l21.8-12.6l-0.2-25.1L51.5,62.1z"/>
				</g>
			</g>
		</g>
		<g>
			<g>
				<polygon class="st1" points="49.9,61.1 50.2,90 25.4,75.8 25.1,46.9 				"/>
			</g>
			<g>
				<g>
					<path class="st4" d="M50.2,91.6L50.2,91.6c-0.3,0-0.6-0.1-0.8-0.2L24.6,77.2c-0.5-0.3-0.8-0.8-0.8-1.4L23.5,47
						c0-0.6,0.3-1.1,0.8-1.4c0.5-0.3,1.1-0.3,1.6,0l24.8,14.2c0.5,0.3,0.8,0.8,0.8,1.4l0.3,28.6c0,0.1,0,0.1,0,0.2
						C51.8,90.9,51.1,91.6,50.2,91.6z M27,74.8l21.6,12.4l-0.2-25.1L26.7,49.7L27,74.8z"/>
				</g>
			</g>
		</g>
	</g>
	<g>
		<g>
			<polygon class="st5" points="50.1,22.3 63.2,29.7 50,37.3 37,29.8 			"/>
			<path class="st4" d="M50,38.9c-0.3,0-0.6,0-0.8-0.2l-13.1-7.5c-0.5-0.3-0.8-0.8-0.8-1.4s0.3-1.1,0.8-1.4l13.2-7.6
				c0.5-0.3,1.1-0.3,1.6,0L64,28.4c0.5,0.3,0.8,0.8,0.8,1.4s-0.3,1.1-0.8,1.4l-13.2,7.6C50.6,38.9,50.3,38.9,50,38.9z M40.2,29.8
				l9.8,5.6l9.9-5.7l-9.8-5.6L40.2,29.8z"/>
		</g>
		<g>
			<g>
				<polygon class="st6" points="63,29.6 63.2,44.8 50,52.4 49.9,37.2 				"/>
			</g>
			<g>
				<g>
					<path class="st4" d="M50.2,54.1c-0.3,0-0.6,0-0.8-0.2c-0.5-0.3-0.8-0.8-0.8-1.4l-0.1-15.2c0-0.6,0.3-1.1,0.8-1.4l13.2-7.6
						c0.5-0.3,1.1-0.3,1.6,0c0.5,0.3,0.8,0.8,0.8,1.4L65,44.9c0,0.6-0.3,1.1-0.8,1.4L51,53.9C50.7,54.1,50.4,54.1,50.2,54.1z
						 M51.6,38.3l0.1,11.5l10-5.8l-0.1-11.5L51.6,38.3z"/>
				</g>
			</g>
		</g>
		<g>
			<g>
				<polygon class="st1" points="50,37.3 50.2,52.5 37.1,45 37,29.8 				"/>
			</g>
			<g>
				<g>
					<path class="st4" d="M50.2,54.1L50.2,54.1c-0.3,0-0.6,0-0.8-0.2l-13.1-7.5c-0.5-0.3-0.8-0.8-0.8-1.4l-0.1-15.2
						c0-0.6,0.3-1.1,0.8-1.4s1.1-0.3,1.6,0l13,7.5c0.5,0.3,0.8,0.8,0.8,1.4l0.1,15c0,0.1,0,0.1,0,0.2C51.8,53.4,51.1,54.1,50.2,54.1
						z M38.7,44.1l9.8,5.6l-0.1-11.5l-9.9-5.7L38.7,44.1z"/>
				</g>
			</g>
		</g>
	</g>
</g>
</svg>
