<?xml version="1.0" encoding="utf-8"?>
<!-- Generator: Adobe Illustrator 22.1.0, SVG Export Plug-In . SVG Version: 6.00 Build 0)  -->
<svg version="1.1" id="Layer_1" xmlns="http://www.w3.org/2000/svg" xmlns:xlink="http://www.w3.org/1999/xlink" x="0px" y="0px"
	 viewBox="0 0 100 100" style="enable-background:new 0 0 100 100;" xml:space="preserve">
<style type="text/css">
	.st0{fill:#00FD5E;}
	.st1{fill:none;}
	.st2{fill:#FFFFFF;}
	.st3{fill:#ACB3B3;}
	.st4{fill:#292D33;}
	.st5{fill:#4984E9;}
	.st6{font-family:'Rubik-Medium';}
	.st7{font-size:12.9565px;}
</style>
<g>
	<g>
		<rect x="38.7" y="20.6" class="st0" width="22.9" height="77.6"/>
	</g>
	<g>
		<line class="st1" x1="50.1" y1="23.7" x2="50.1" y2="16.2"/>
		<rect x="48.1" y="16.2" class="st0" width="4.1" height="7.5"/>
	</g>
	<g>
		<g>
			<line class="st1" x1="42.2" y1="27.1" x2="45.4" y2="27.1"/>
			<rect x="42.2" y="25.3" class="st2" width="3.2" height="3.5"/>
		</g>
		<g>
			<line class="st1" x1="48.6" y1="27.1" x2="51.8" y2="27.1"/>
			<rect x="48.6" y="25.3" class="st2" width="3.2" height="3.5"/>
		</g>
		<g>
			<line class="st1" x1="55" y1="27.1" x2="58.3" y2="27.1"/>
			<rect x="55" y="25.3" class="st2" width="3.2" height="3.5"/>
		</g>
	</g>
	<g>
		<g>
			<line class="st1" x1="42.2" y1="33.3" x2="45.4" y2="33.3"/>
			<rect x="42.2" y="31.5" class="st2" width="3.2" height="3.5"/>
		</g>
		<g>
			<line class="st1" x1="48.6" y1="33.3" x2="51.8" y2="33.3"/>
			<rect x="48.6" y="31.5" class="st2" width="3.2" height="3.5"/>
		</g>
		<g>
			<line class="st1" x1="55" y1="33.3" x2="58.3" y2="33.3"/>
			<rect x="55" y="31.5" class="st2" width="3.2" height="3.5"/>
		</g>
	</g>
	<g>
		<g>
			<line class="st1" x1="42.2" y1="39.4" x2="45.4" y2="39.4"/>
			<rect x="42.2" y="37.7" class="st2" width="3.2" height="3.5"/>
		</g>
		<g>
			<line class="st1" x1="48.6" y1="39.4" x2="51.8" y2="39.4"/>
			<rect x="48.6" y="37.7" class="st2" width="3.2" height="3.5"/>
		</g>
		<g>
			<line class="st1" x1="55" y1="39.4" x2="58.3" y2="39.4"/>
			<rect x="55" y="37.7" class="st2" width="3.2" height="3.5"/>
		</g>
	</g>
	<g>
		<g>
			<line class="st1" x1="42.2" y1="45.6" x2="45.4" y2="45.6"/>
			<rect x="42.2" y="43.9" class="st2" width="3.2" height="3.5"/>
		</g>
		<g>
			<line class="st1" x1="48.6" y1="45.6" x2="51.8" y2="45.6"/>
			<rect x="48.6" y="43.9" class="st2" width="3.2" height="3.5"/>
		</g>
		<g>
			<line class="st1" x1="55" y1="45.6" x2="58.3" y2="45.6"/>
			<rect x="55" y="43.9" class="st2" width="3.2" height="3.5"/>
		</g>
	</g>
	<g>
		<g>
			<line class="st1" x1="42.2" y1="51.8" x2="45.4" y2="51.8"/>
			<rect x="42.2" y="50.1" class="st2" width="3.2" height="3.5"/>
		</g>
		<g>
			<line class="st1" x1="48.6" y1="51.8" x2="51.8" y2="51.8"/>
			<rect x="48.6" y="50.1" class="st2" width="3.2" height="3.5"/>
		</g>
		<g>
			<line class="st1" x1="55" y1="51.8" x2="58.3" y2="51.8"/>
			<rect x="55" y="50.1" class="st2" width="3.2" height="3.5"/>
		</g>
	</g>
	<g>
		<g>
			<line class="st1" x1="42.2" y1="58" x2="45.4" y2="58"/>
			<rect x="42.2" y="56.3" class="st2" width="3.2" height="3.5"/>
		</g>
		<g>
			<line class="st1" x1="48.6" y1="58" x2="51.8" y2="58"/>
			<rect x="48.6" y="56.3" class="st2" width="3.2" height="3.5"/>
		</g>
		<g>
			<line class="st1" x1="55" y1="58" x2="58.3" y2="58"/>
			<rect x="55" y="56.3" class="st2" width="3.2" height="3.5"/>
		</g>
	</g>
	<g>
		<g>
			<line class="st1" x1="42.2" y1="64.2" x2="45.4" y2="64.2"/>
			<rect x="42.2" y="62.5" class="st2" width="3.2" height="3.5"/>
		</g>
		<g>
			<line class="st1" x1="48.6" y1="64.2" x2="51.8" y2="64.2"/>
			<rect x="48.6" y="62.5" class="st2" width="3.2" height="3.5"/>
		</g>
		<g>
			<line class="st1" x1="55" y1="64.2" x2="58.3" y2="64.2"/>
			<rect x="55" y="62.5" class="st2" width="3.2" height="3.5"/>
		</g>
	</g>
	<g>
		<g>
			<line class="st1" x1="42.2" y1="70.4" x2="45.4" y2="70.4"/>
			<rect x="42.2" y="68.6" class="st2" width="3.2" height="3.5"/>
		</g>
		<g>
			<line class="st1" x1="48.6" y1="70.4" x2="51.8" y2="70.4"/>
			<rect x="48.6" y="68.6" class="st2" width="3.2" height="3.5"/>
		</g>
		<g>
			<line class="st1" x1="55" y1="70.4" x2="58.3" y2="70.4"/>
			<rect x="55" y="68.6" class="st2" width="3.2" height="3.5"/>
		</g>
	</g>
	<g>
		<g>
			<line class="st1" x1="42.2" y1="76.5" x2="45.4" y2="76.5"/>
			<rect x="42.2" y="74.8" class="st2" width="3.2" height="3.5"/>
		</g>
		<g>
			<line class="st1" x1="48.6" y1="76.5" x2="51.8" y2="76.5"/>
			<rect x="48.6" y="74.8" class="st2" width="3.2" height="3.5"/>
		</g>
		<g>
			<line class="st1" x1="55" y1="76.5" x2="58.3" y2="76.5"/>
			<rect x="55" y="74.8" class="st2" width="3.2" height="3.5"/>
		</g>
	</g>
	<g>
		<g>
			<line class="st1" x1="42.2" y1="82.7" x2="45.4" y2="82.7"/>
			<rect x="42.2" y="81" class="st2" width="3.2" height="3.5"/>
		</g>
		<g>
			<line class="st1" x1="48.6" y1="82.7" x2="51.8" y2="82.7"/>
			<rect x="48.6" y="81" class="st2" width="3.2" height="3.5"/>
		</g>
		<g>
			<line class="st1" x1="55" y1="82.7" x2="58.3" y2="82.7"/>
			<rect x="55" y="81" class="st2" width="3.2" height="3.5"/>
		</g>
	</g>
	<g>
		<g>
			<line class="st1" x1="42.2" y1="88.9" x2="45.4" y2="88.9"/>
			<rect x="42.2" y="87.2" class="st2" width="3.2" height="3.5"/>
		</g>
		<g>
			<line class="st1" x1="48.6" y1="88.9" x2="51.8" y2="88.9"/>
			<rect x="48.6" y="87.2" class="st2" width="3.2" height="3.5"/>
		</g>
		<g>
			<line class="st1" x1="55" y1="88.9" x2="58.3" y2="88.9"/>
			<rect x="55" y="87.2" class="st2" width="3.2" height="3.5"/>
		</g>
	</g>
	<g>
		<rect x="59.1" y="47.3" class="st3" width="20.6" height="50.8"/>
		<path class="st4" d="M81.3,99.7H57.4V45.7h23.9V99.7z M60.7,96.5h17.4V48.9H60.7L60.7,96.5L60.7,96.5z"/>
	</g>
	<g>
		<rect x="61.9" y="42.1" class="st3" width="14.9" height="5.2"/>
		<path class="st4" d="M78.5,48.9H60.3v-8.4h18.1V48.9z M63.5,45.7h11.7v-2H63.5L63.5,45.7L63.5,45.7z"/>
	</g>
	<g>
		<rect x="62.4" y="51.2" class="st2" width="13.9" height="3.2"/>
	</g>
	<g>
		<rect x="62.4" y="57.6" class="st2" width="13.9" height="3.2"/>
	</g>
	<g>
		<rect x="62.4" y="64" class="st2" width="13.9" height="3.2"/>
	</g>
	<g>
		<rect x="62.4" y="70.5" class="st2" width="13.9" height="3.2"/>
	</g>
	<g>
		<rect x="62.4" y="76.9" class="st2" width="13.9" height="3.2"/>
	</g>
	<g>
		<rect x="62.4" y="83.4" class="st2" width="13.9" height="3.2"/>
	</g>
	<g>
		<rect x="62.4" y="89.8" class="st2" width="13.9" height="3.2"/>
	</g>
	<g>
		<line class="st1" x1="69.4" y1="41.4" x2="69.4" y2="33.8"/>
		<rect x="67.8" y="33.8" class="st4" width="3.2" height="7.5"/>
	</g>
	<g>
		<rect x="24" y="56.2" class="st2" width="22.2" height="41.9"/>
		<path class="st4" d="M47.8,99.7H22.4V54.6h25.5V99.7z M25.6,96.5h19V57.8h-19V96.5z"/>
	</g>
	<g>
		<rect x="23.4" y="52.1" class="st2" width="23.5" height="5"/>
		<path class="st4" d="M48.5,58.6H21.8v-8.2h26.7V58.6z M25,55.4h20.3v-1.7H25V55.4z"/>
	</g>
	<g>
		<g>
			<line class="st1" x1="27.6" y1="62.6" x2="30.6" y2="62.6"/>
			<rect x="27.6" y="61" class="st4" width="3" height="3.2"/>
		</g>
		<g>
			<line class="st1" x1="33.5" y1="62.6" x2="36.5" y2="62.6"/>
			<rect x="33.5" y="61" class="st4" width="3" height="3.2"/>
		</g>
		<g>
			<line class="st1" x1="39.5" y1="62.6" x2="42.5" y2="62.6"/>
			<rect x="39.5" y="61" class="st4" width="3" height="3.2"/>
		</g>
	</g>
	<g>
		<g>
			<line class="st1" x1="27.6" y1="68.2" x2="30.6" y2="68.2"/>
			<rect x="27.6" y="66.6" class="st4" width="3" height="3.2"/>
		</g>
		<g>
			<line class="st1" x1="33.5" y1="68.2" x2="36.5" y2="68.2"/>
			<rect x="33.5" y="66.6" class="st4" width="3" height="3.2"/>
		</g>
		<g>
			<line class="st1" x1="39.5" y1="68.2" x2="42.5" y2="68.2"/>
			<rect x="39.5" y="66.6" class="st4" width="3" height="3.2"/>
		</g>
	</g>
	<g>
		<g>
			<line class="st1" x1="27.6" y1="73.8" x2="30.6" y2="73.8"/>
			<rect x="27.6" y="72.2" class="st4" width="3" height="3.2"/>
		</g>
		<g>
			<line class="st1" x1="33.5" y1="73.8" x2="36.5" y2="73.8"/>
			<rect x="33.5" y="72.2" class="st4" width="3" height="3.2"/>
		</g>
		<g>
			<line class="st1" x1="39.5" y1="73.8" x2="42.5" y2="73.8"/>
			<rect x="39.5" y="72.2" class="st4" width="3" height="3.2"/>
		</g>
	</g>
	<g>
		<g>
			<line class="st1" x1="27.6" y1="79.4" x2="30.6" y2="79.4"/>
			<rect x="27.6" y="77.8" class="st4" width="3" height="3.2"/>
		</g>
		<g>
			<line class="st1" x1="33.5" y1="79.4" x2="36.5" y2="79.4"/>
			<rect x="33.5" y="77.8" class="st4" width="3" height="3.2"/>
		</g>
		<g>
			<line class="st1" x1="39.5" y1="79.4" x2="42.5" y2="79.4"/>
			<rect x="39.5" y="77.8" class="st4" width="3" height="3.2"/>
		</g>
	</g>
	<g>
		<g>
			<line class="st1" x1="27.6" y1="85.1" x2="30.6" y2="85.1"/>
			<rect x="27.6" y="83.5" class="st4" width="3" height="3.2"/>
		</g>
		<g>
			<line class="st1" x1="33.5" y1="85.1" x2="36.5" y2="85.1"/>
			<rect x="33.5" y="83.5" class="st4" width="3" height="3.2"/>
		</g>
		<g>
			<line class="st1" x1="39.5" y1="85.1" x2="42.5" y2="85.1"/>
			<rect x="39.5" y="83.5" class="st4" width="3" height="3.2"/>
		</g>
	</g>
	<g>
		<g>
			<line class="st1" x1="27.6" y1="90.7" x2="30.6" y2="90.7"/>
			<rect x="27.6" y="89.1" class="st4" width="3" height="3.2"/>
		</g>
		<g>
			<line class="st1" x1="33.5" y1="90.7" x2="36.5" y2="90.7"/>
			<rect x="33.5" y="89.1" class="st4" width="3" height="3.2"/>
		</g>
		<g>
			<line class="st1" x1="39.5" y1="90.7" x2="42.5" y2="90.7"/>
			<rect x="39.5" y="89.1" class="st4" width="3" height="3.2"/>
		</g>
	</g>
	<g>
		<rect x="16.7" y="96.5" class="st4" width="41" height="3.2"/>
	</g>
</g>
<g>
	<g>
		<circle class="st5" cx="14.9" cy="14.9" r="14.9"/>
		<text transform="matrix(1 0 0 1 10.1659 18.9326)" class="st2 st6 st7">4</text>
	</g>
</g>
</svg>
