<?xml version="1.0" encoding="utf-8"?>
<!-- Generator: Adobe Illustrator 22.1.0, SVG Export Plug-In . SVG Version: 6.00 Build 0)  -->
<svg version="1.1" id="Layer_1" xmlns="http://www.w3.org/2000/svg" xmlns:xlink="http://www.w3.org/1999/xlink" x="0px" y="0px"
	 viewBox="0 0 100 100" style="enable-background:new 0 0 100 100;" xml:space="preserve">
<style type="text/css">
	.st0{fill:#FFFFFF;}
	.st1{fill:#292D33;}
	.st2{fill:#ACB3B3;}
	.st3{fill:none;}
	.st4{fill:#00FD5E;}
	.st5{font-family:'Alegreya-BoldItalic';}
	.st6{font-size:20.9833px;}
	.st7{fill:#4984E9;}
	.st8{font-family:'Rubik-Medium';}
	.st9{font-size:12.9565px;}
</style>
<g>
	<g>
		<g>
			<g>
				<rect x="17.8" y="36.5" class="st0" width="63.3" height="34.8"/>
				<path class="st1" d="M82.8,72.9H16.3v-38h66.5V72.9L82.8,72.9z M19.4,69.7h60.1V38.1H19.4C19.4,38.1,19.4,69.7,19.4,69.7z"/>
			</g>
			<path class="st2" d="M26.5,66.5c-0.3-1.9-1.9-3.5-3.9-3.7V45c1.9-0.3,3.5-1.8,3.9-3.7h46.1c0.4,1.9,1.9,3.4,3.9,3.7v17.8
				c-1.9,0.3-3.5,1.8-3.9,3.7H26.5z"/>
			<g>
				<path class="st0" d="M56.9,53.9c0,4.1-3.3,7.4-7.4,7.4s-7.4-3.3-7.4-7.4s3.3-7.4,7.4-7.4C53.6,46.6,56.9,49.8,56.9,53.9z"/>
				<path class="st1" d="M49.6,62.9c-4.9,0-8.9-4-8.9-9s4-9,8.9-9c5,0,9,4,9,9C58.5,58.9,54.5,62.9,49.6,62.9z M49.6,48.2
					c-3.2,0-5.8,2.6-5.8,5.8c0,3.2,2.6,5.8,5.8,5.8c3.2,0,5.8-2.6,5.8-5.8C55.3,50.7,52.7,48.2,49.6,48.2z"/>
			</g>
			<g>
				<g>
					<g>
						<line class="st3" x1="60.9" y1="53.9" x2="71.7" y2="53.9"/>
						<rect x="60.9" y="52.3" class="st1" width="10.9" height="3.2"/>
					</g>
					<g>
						<g>
							<line class="st3" x1="60.9" y1="47.8" x2="67.3" y2="47.8"/>
							<rect x="60.9" y="46.2" class="st1" width="6.5" height="3.2"/>
						</g>
						<g>
							<line class="st3" x1="60.9" y1="60" x2="67.3" y2="60"/>
							<rect x="60.9" y="58.4" class="st1" width="6.5" height="3.2"/>
						</g>
					</g>
				</g>
				<g>
					<g>
						<line class="st3" x1="38.2" y1="53.9" x2="27.4" y2="53.9"/>
						<rect x="27.4" y="52.3" class="st1" width="10.9" height="3.2"/>
					</g>
					<g>
						<g>
							<line class="st3" x1="38.2" y1="60" x2="31.7" y2="60"/>
							<rect x="31.7" y="58.4" class="st1" width="6.5" height="3.2"/>
						</g>
						<g>
							<line class="st3" x1="38.2" y1="47.8" x2="31.7" y2="47.8"/>
							<rect x="31.7" y="46.2" class="st1" width="6.5" height="3.2"/>
						</g>
					</g>
				</g>
			</g>
		</g>
	</g>
	<g>
		<g>
			<g>
				<line class="st3" x1="16.3" y1="78" x2="82.8" y2="78"/>
				<rect x="16.3" y="76.4" class="st1" width="66.5" height="3.2"/>
			</g>
		</g>
	</g>
	<g>
		<g>
			<g>
				<line class="st3" x1="16.3" y1="84.7" x2="82.8" y2="84.7"/>
				<rect x="16.3" y="83.1" class="st1" width="66.5" height="3.2"/>
			</g>
		</g>
	</g>
	<g>
		<g>
			<g>
				<line class="st3" x1="16.3" y1="91.4" x2="82.8" y2="91.4"/>
				<rect x="16.3" y="89.8" class="st1" width="66.5" height="3.2"/>
			</g>
		</g>
	</g>
	<g>
		<path class="st4" d="M94.8,87.5c0,6.9-5.6,12.5-12.5,12.5s-12.5-5.6-12.5-12.5c0-6.9,5.6-12.5,12.5-12.5S94.8,80.5,94.8,87.5z"/>
	</g>
</g>
<text transform="matrix(1 0 0 1 79.5127 94.0356)" class="st5 st6">i</text>
<g>
	<g>
		<circle class="st7" cx="14.9" cy="14.9" r="14.9"/>
		<text transform="matrix(1 0 0 1 10.6299 18.8952)" class="st0 st8 st9">5</text>
	</g>
</g>
</svg>
